{
  "source": "C:\\Users\\Peter\\Desktop\\stuff\\MIUN\\quantitative_research\\video_compression\\videos\\BVI-HD\\BVI-HD_CDVL_videos\\ORIG\\CalmingWater_1920x1080_60fps.mp4",
  "output": "C:\\Users\\Peter\\Desktop\\stuff\\MIUN\\quantitative_research\\video_compression\\compressed_videos\\BVI-HD\\hevc\\1\\CalmingWater_1920x1080_60fps_hevc.mp4",
  "codec": "hevc",
  "ok": "Input #0, mov,mp4,m4a,3gp,3g2,mj2, from 'C:\\Users\\Peter\\Desktop\\stuff\\MIUN\\quantitative_research\\video_compression\\videos\\BVI-HD\\BVI-HD_CDVL_videos\\ORIG\\CalmingWater_1920x1080_60fps.mp4':\n  Metadata:\n    major_brand     : isom\n    minor_version   : 512\n    compatible_brands: isomiso2avc1mp41\n    encoder         : Lavf54.28.101\n  Duration: 00:00:05.00, start: 0.000000, bitrate: 623787 kb/s\n  Stream #0:0[0x1](und): Video: h264 (High 4:4:4 Predictive) (avc1 / 0x31637661), yuv420p(progressive), 1920x1080, 623782 kb/s, 60 fps, 60 tbr, 60 tbn (default)\n    Metadata:\n      handler_name    : VideoHandler\n      vendor_id       : [0][0][0][0]\n[out#0/mp4 @ 0000023f30f1ab40] Codec AVOption b:a (set bitrate (in bits/s)) has not been used for any stream. The most likely reason is either wrong type (e.g. a video option with no video streams) or that it is a private option of some decoder which was not actually used for any stream.\nStream mapping:\n  Stream #0:0 -> #0:0 (h264 (native) -> hevc (libx265))\nPress [q] to stop, [?] for help\n[libx265 @ 0000023f31a004c0] Unknown option: \"aq-mode.\nx265 [info]: HEVC encoder version 4.1+190-8f11c33ac\nx265 [info]: build info [Windows][GCC 15.1.0][64 bit] 10bit\nx265 [info]: using cpu capabilities: MMX2 SSE2Fast LZCNT SSSE3 SSE4.2 AVX FMA3 BMI2 AVX2\nx265 [info]: Main 10 profile, Level-4.1 (Main tier)\nx265 [info]: Thread pool created using 12 threads\nx265 [info]: Slices                              : 1\nx265 [info]: frame threads / pool features       : 3 / wpp(17 rows)\nx265 [info]: Coding QT: max CU size, min CU size : 64 / 8\nx265 [info]: Residual QT: max TU size, max depth : 32 / 1 inter / 1 intra\nx265 [info]: ME / range / subpel / merge         : star / 57 / 3 / 3\nx265 [info]: Keyframe min / max / scenecut / bias  : 25 / 250 / 40 / 5.00 \nx265 [info]: Lookahead / bframes / badapt        : 25 / 4 / 2\nx265 [info]: b-pyramid / weightp / weightb       : 1 / 1 / 0\nx265 [info]: References / ref-limit  cu / depth  : 4 / on / on\nx265 [info]: AQ: mode / str / qg-size / cu-tree  : 2 / 1.0 / 32 / 1\nx265 [info]: Rate Control / qCompress            : ABR-1000 kbps / 0.60\nx265 [info]: VBV/HRD buffer / max-rate / init    : 1000 / 1000 / 0.750\nx265 [info]: tools: rect limit-modes rd=4 psy-rd=2.00 rdoq=2 psy-rdoq=1.00\nx265 [info]: tools: rskip mode=1 signhide tmvp strong-intra-smoothing lslices=4\nx265 [info]: tools: deblock sao dhdr10-info\nOutput #0, mp4, to 'C:\\Users\\Peter\\Desktop\\stuff\\MIUN\\quantitative_research\\video_compression\\compressed_videos\\BVI-HD\\hevc\\1\\CalmingWater_1920x1080_60fps_hevc.mp4':\n  Metadata:\n    major_brand     : isom\n    minor_version   : 512\n    compatible_brands: isomiso2avc1mp41\n    encoder         : Lavf62.3.100\n  Stream #0:0(und): Video: hevc (hev1 / 0x31766568), yuv420p10le(tv, progressive), 1920x1080, q=2-31, 1000 kb/s, 60 fps, 15360 tbn (default)\n    Metadata:\n      encoder         : Lavc62.11.100 libx265\n      handler_name    : VideoHandler\n      vendor_id       : [0][0][0][0]\n    Side data:\n      cpb: bitrate max/min/avg: 1000000/0/1000000 buffer size: 1000000 vbv_delay: N/A\nframe=    0 fps=0.0 q=0.0 size=       0KiB time=N/A bitrate=N/A speed=N/A elapsed=0:00:00.50    \nframe=    0 fps=0.0 q=0.0 size=       0KiB time=N/A bitrate=N/A speed=N/A elapsed=0:00:01.12    \nframe=    0 fps=0.0 q=0.0 size=       0KiB time=N/A bitrate=N/A speed=N/A elapsed=0:00:01.66    \nframe=    0 fps=0.0 q=0.0 size=       0KiB time=N/A bitrate=N/A speed=N/A elapsed=0:00:02.18    \nframe=    0 fps=0.0 q=0.0 size=       0KiB time=N/A bitrate=N/A speed=N/A elapsed=0:00:02.73    \nframe=    0 fps=0.0 q=0.0 size=       0KiB time=N/A bitrate=N/A speed=N/A elapsed=0:00:03.29    \nframe=    0 fps=0.0 q=0.0 size=       0KiB time=N/A bitrate=N/A speed=N/A elapsed=0:00:03.83    \nframe=    0 fps=0.0 q=0.0 size=       0KiB time=N/A bitrate=N/A speed=N/A elapsed=0:00:04.41    \nframe=    0 fps=0.0 q=0.0 size=       0KiB time=N/A bitrate=N/A speed=N/A elapsed=0:00:05.02    \nframe=    0 fps=0.0 q=0.0 size=       0KiB time=N/A bitrate=N/A speed=N/A elapsed=0:00:05.58    \nframe=    0 fps=0.0 q=0.0 size=       0KiB time=N/A bitrate=N/A speed=N/A elapsed=0:00:06.13    \nframe=    0 fps=0.0 q=0.0 size=       0KiB time=N/A bitrate=N/A speed=N/A elapsed=0:00:06.67    \nframe=    0 fps=0.0 q=0.0 size=       0KiB time=N/A bitrate=N/A speed=N/A elapsed=0:00:07.20    \nframe=    0 fps=0.0 q=0.0 size=       0KiB time=N/A bitrate=N/A speed=N/A elapsed=0:00:07.73    \nframe=    0 fps=0.0 q=0.0 size=       0KiB time=N/A bitrate=N/A speed=N/A elapsed=0:00:08.27    \nframe=    0 fps=0.0 q=0.0 size=       0KiB time=N/A bitrate=N/A speed=N/A elapsed=0:00:08.78    \nframe=    0 fps=0.0 q=0.0 size=       0KiB time=N/A bitrate=N/A speed=N/A elapsed=0:00:09.32    \nframe=    0 fps=0.0 q=0.0 size=       0KiB time=N/A bitrate=N/A speed=N/A elapsed=0:00:09.86    \nframe=    0 fps=0.0 q=0.0 size=       0KiB time=N/A bitrate=N/A speed=N/A elapsed=0:00:10.42    \nframe=    0 fps=0.0 q=0.0 size=       0KiB time=N/A bitrate=N/A speed=N/A elapsed=0:00:11.02    \nframe=    0 fps=0.0 q=0.0 size=       0KiB time=N/A bitrate=N/A speed=N/A elapsed=0:00:11.59    \nframe=    0 fps=0.0 q=0.0 size=       0KiB time=N/A bitrate=N/A speed=N/A elapsed=0:00:12.12    \nframe=    0 fps=0.0 q=0.0 size=       0KiB time=N/A bitrate=N/A speed=N/A elapsed=0:00:12.65    \nframe=    0 fps=0.0 q=0.0 size=       0KiB time=N/A bitrate=N/A speed=N/A elapsed=0:00:13.19    \nframe=    0 fps=0.0 q=0.0 size=       0KiB time=N/A bitrate=N/A speed=N/A elapsed=0:00:13.83    \nframe=    0 fps=0.0 q=0.0 size=       0KiB time=N/A bitrate=N/A speed=N/A elapsed=0:00:14.48    \nframe=    1 fps=0.1 q=51.0 size=       0KiB time=-00:00:00.01 bitrate=N/A speed=N/A elapsed=0:00:15.02    \nframe=    2 fps=0.1 q=51.0 size=       0KiB time=00:00:00.00 bitrate=N/A speed=   0x elapsed=0:00:15.57    \nframe=    2 fps=0.1 q=51.0 size=       0KiB time=00:00:00.00 bitrate=N/A speed=   0x elapsed=0:00:16.13    \nframe=    2 fps=0.1 q=51.0 size=       0KiB time=00:00:00.00 bitrate=N/A speed=   0x elapsed=0:00:16.77    \nframe=    2 fps=0.1 q=51.0 size=       0KiB time=00:00:00.00 bitrate=N/A speed=   0x elapsed=0:00:17.40    \nframe=    2 fps=0.1 q=51.0 size=       0KiB time=00:00:00.00 bitrate=N/A speed=   0x elapsed=0:00:17.92    \nframe=    2 fps=0.1 q=51.0 size=       0KiB time=00:00:00.00 bitrate=N/A speed=   0x elapsed=0:00:18.45    \nframe=    3 fps=0.2 q=51.0 size=       0KiB time=00:00:00.01 bitrate=  21.1kbits/s speed=0.000878x elapsed=0:00:18.98    \nframe=    3 fps=0.2 q=51.0 size=       0KiB time=00:00:00.01 bitrate=  21.1kbits/s speed=0.000854x elapsed=0:00:19.51    \nframe=    3 fps=0.1 q=51.0 size=       0KiB time=00:00:00.01 bitrate=  21.1kbits/s speed=0.000827x elapsed=0:00:20.15    \nframe=    3 fps=0.1 q=51.0 size=       0KiB time=00:00:00.01 bitrate=  21.1kbits/s speed=0.000804x elapsed=0:00:20.74    \nframe=    4 fps=0.2 q=51.0 size=       0KiB time=00:00:00.03 bitrate=  10.6kbits/s speed=0.00157x elapsed=0:00:21.28    \nframe=    5 fps=0.2 q=51.0 size=       0KiB time=00:00:00.05 bitrate=   7.0kbits/s speed=0.00229x elapsed=0:00:21.84    \nframe=    5 fps=0.2 q=51.0 size=       0KiB time=00:00:00.05 bitrate=   7.0kbits/s speed=0.00223x elapsed=0:00:22.38    \nframe=    5 fps=0.2 q=51.0 size=       0KiB time=00:00:00.05 bitrate=   7.0kbits/s speed=0.00218x elapsed=0:00:22.91    \nframe=    5 fps=0.2 q=51.0 size=       0KiB time=00:00:00.05 bitrate=   7.0kbits/s speed=0.00213x elapsed=0:00:23.44    \nframe=    5 fps=0.2 q=51.0 size=       0KiB time=00:00:00.05 bitrate=   7.0kbits/s speed=0.00208x elapsed=0:00:24.06    \nframe=    5 fps=0.2 q=51.0 size=       0KiB time=00:00:00.05 bitrate=   7.0kbits/s speed=0.00203x elapsed=0:00:24.65    \nframe=    5 fps=0.2 q=51.0 size=       0KiB time=00:00:00.05 bitrate=   7.0kbits/s speed=0.00198x elapsed=0:00:25.19    \nframe=    6 fps=0.2 q=51.0 size=       0KiB time=00:00:00.06 bitrate=   5.3kbits/s speed=0.00259x elapsed=0:00:25.72    \nframe=    6 fps=0.2 q=51.0 size=       0KiB time=00:00:00.06 bitrate=   5.3kbits/s speed=0.00254x elapsed=0:00:26.25    \nframe=    7 fps=0.3 q=51.0 size=       0KiB time=00:00:00.08 bitrate=   4.2kbits/s speed=0.00311x elapsed=0:00:26.80    \nframe=    7 fps=0.3 q=51.0 size=       0KiB time=00:00:00.08 bitrate=   4.2kbits/s speed=0.00305x elapsed=0:00:27.35    \nframe=    7 fps=0.2 q=51.0 size=       0KiB time=00:00:00.08 bitrate=   4.2kbits/s speed=0.00297x elapsed=0:00:28.01    \nframe=    7 fps=0.2 q=51.0 size=       0KiB time=00:00:00.08 bitrate=   4.2kbits/s speed=0.00292x elapsed=0:00:28.55    \nframe=    7 fps=0.2 q=51.0 size=       0KiB time=00:00:00.08 bitrate=   4.2kbits/s speed=0.00287x elapsed=0:00:29.08    \nframe=    9 fps=0.3 q=51.0 size=       0KiB time=00:00:00.11 bitrate=   3.0kbits/s speed=0.00394x elapsed=0:00:29.59    \nframe=    9 fps=0.3 q=51.0 size=       0KiB time=00:00:00.11 bitrate=   3.0kbits/s speed=0.00387x elapsed=0:00:30.12    \nframe=   10 fps=0.3 q=51.0 size=       0KiB time=00:00:00.13 bitrate=   2.6kbits/s speed=0.00435x elapsed=0:00:30.65    \nframe=   10 fps=0.3 q=51.0 size=       0KiB time=00:00:00.13 bitrate=   2.6kbits/s speed=0.00427x elapsed=0:00:31.19    \nframe=   11 fps=0.3 q=51.0 size=       0KiB time=00:00:00.15 bitrate=   2.3kbits/s speed=0.00473x elapsed=0:00:31.73    \nframe=   11 fps=0.3 q=51.0 size=       0KiB time=00:00:00.15 bitrate=   2.3kbits/s speed=0.00464x elapsed=0:00:32.36    \nframe=   11 fps=0.3 q=51.0 size=       0KiB time=00:00:00.15 bitrate=   2.3kbits/s speed=0.00456x elapsed=0:00:32.91    \nframe=   12 fps=0.4 q=51.0 size=       0KiB time=00:00:00.16 bitrate=   2.1kbits/s speed=0.00498x elapsed=0:00:33.45    \nframe=   12 fps=0.4 q=51.0 size=       0KiB time=00:00:00.16 bitrate=   2.1kbits/s speed=0.0049x elapsed=0:00:34.01    \nframe=   12 fps=0.3 q=51.0 size=       0KiB time=00:00:00.16 bitrate=   2.1kbits/s speed=0.00482x elapsed=0:00:34.59    \nframe=   12 fps=0.3 q=51.0 size=       0KiB time=00:00:00.16 bitrate=   2.1kbits/s speed=0.00475x elapsed=0:00:35.10    \nframe=   12 fps=0.3 q=51.0 size=       0KiB time=00:00:00.16 bitrate=   2.1kbits/s speed=0.00467x elapsed=0:00:35.65    \nframe=   13 fps=0.4 q=51.0 size=       0KiB time=00:00:00.18 bitrate=   1.9kbits/s speed=0.00506x elapsed=0:00:36.19    \nframe=   13 fps=0.4 q=51.0 size=       0KiB time=00:00:00.18 bitrate=   1.9kbits/s speed=0.00499x elapsed=0:00:36.72    \nframe=   14 fps=0.4 q=51.0 size=       0KiB time=00:00:00.20 bitrate=   1.8kbits/s speed=0.00537x elapsed=0:00:37.24    \nframe=   15 fps=0.4 q=51.0 size=       0KiB time=00:00:00.21 bitrate=   1.6kbits/s speed=0.00574x elapsed=0:00:37.77    \nframe=   16 fps=0.4 q=51.0 size=       0KiB time=00:00:00.23 bitrate=   1.5kbits/s speed=0.00609x elapsed=0:00:38.29    \nframe=   16 fps=0.4 q=51.0 size=       0KiB time=00:00:00.23 bitrate=   1.5kbits/s speed=0.00601x elapsed=0:00:38.80    \nframe=   17 fps=0.4 q=51.0 size=       0KiB time=00:00:00.25 bitrate=   1.4kbits/s speed=0.00636x elapsed=0:00:39.32    \nframe=   17 fps=0.4 q=51.0 size=       0KiB time=00:00:00.25 bitrate=   1.4kbits/s speed=0.00627x elapsed=0:00:39.84    \nframe=   18 fps=0.4 q=51.0 size=       0KiB time=00:00:00.25 bitrate=   1.4kbits/s speed=0.00619x elapsed=0:00:40.37    \nframe=   18 fps=0.4 q=51.0 size=       0KiB time=00:00:00.26 bitrate=   1.3kbits/s speed=0.00652x elapsed=0:00:40.91    \nframe=   19 fps=0.5 q=51.0 size=       0KiB time=00:00:00.28 bitrate=   1.2kbits/s speed=0.00684x elapsed=0:00:41.43    \nframe=   20 fps=0.5 q=51.0 size=       0KiB time=00:00:00.30 bitrate=   1.2kbits/s speed=0.00715x elapsed=0:00:41.95    \nframe=   20 fps=0.5 q=51.0 size=       0KiB time=00:00:00.30 bitrate=   1.2kbits/s speed=0.00706x elapsed=0:00:42.48    \nframe=   20 fps=0.5 q=51.0 size=       0KiB time=00:00:00.30 bitrate=   1.2kbits/s speed=0.00697x elapsed=0:00:43.03    \nframe=   21 fps=0.5 q=51.0 size=       0KiB time=00:00:00.31 bitrate=   1.1kbits/s speed=0.00727x elapsed=0:00:43.56    \nframe=   21 fps=0.5 q=51.0 size=       0KiB time=00:00:00.31 bitrate=   1.1kbits/s speed=0.00718x elapsed=0:00:44.10    \nframe=   22 fps=0.5 q=51.0 size=       0KiB time=00:00:00.33 bitrate=   1.1kbits/s speed=0.00747x elapsed=0:00:44.62    \nframe=   22 fps=0.5 q=51.0 size=       0KiB time=00:00:00.33 bitrate=   1.1kbits/s speed=0.00739x elapsed=0:00:45.12    \nframe=   23 fps=0.5 q=51.0 size=       0KiB time=00:00:00.35 bitrate=   1.0kbits/s speed=0.00767x elapsed=0:00:45.65    \nframe=   24 fps=0.5 q=51.0 size=       0KiB time=00:00:00.36 bitrate=   1.0kbits/s speed=0.00794x elapsed=0:00:46.17    \nframe=   24 fps=0.5 q=51.0 size=       0KiB time=00:00:00.36 bitrate=   1.0kbits/s speed=0.00785x elapsed=0:00:46.69    \nframe=   25 fps=0.5 q=51.0 size=       0KiB time=00:00:00.38 bitrate=   0.9kbits/s speed=0.00812x elapsed=0:00:47.23    \nframe=   26 fps=0.5 q=51.0 size=       0KiB time=00:00:00.40 bitrate=   0.9kbits/s speed=0.00838x elapsed=0:00:47.74    \nframe=   26 fps=0.5 q=51.0 size=       0KiB time=00:00:00.40 bitrate=   0.9kbits/s speed=0.00829x elapsed=0:00:48.26    \nframe=   27 fps=0.6 q=51.0 size=       0KiB time=00:00:00.41 bitrate=   0.8kbits/s speed=0.00854x elapsed=0:00:48.80    \nframe=   27 fps=0.5 q=51.0 size=       0KiB time=00:00:00.41 bitrate=   0.8kbits/s speed=0.00845x elapsed=0:00:49.33    \nframe=   28 fps=0.6 q=51.0 size=       0KiB time=00:00:00.43 bitrate=   0.8kbits/s speed=0.00869x elapsed=0:00:49.85    \nframe=   29 fps=0.6 q=51.0 size=       0KiB time=00:00:00.45 bitrate=   0.8kbits/s speed=0.00893x elapsed=0:00:50.37    \nframe=   29 fps=0.6 q=51.0 size=       0KiB time=00:00:00.45 bitrate=   0.8kbits/s speed=0.00884x elapsed=0:00:50.89    \nframe=   30 fps=0.6 q=51.0 size=       0KiB time=00:00:00.46 bitrate=   0.8kbits/s speed=0.00907x elapsed=0:00:51.43    \nframe=   30 fps=0.6 q=51.0 size=       0KiB time=00:00:00.46 bitrate=   0.8kbits/s speed=0.00898x elapsed=0:00:51.95    \nframe=   31 fps=0.6 q=51.0 size=       0KiB time=00:00:00.48 bitrate=   0.7kbits/s speed=0.00921x elapsed=0:00:52.50    \nframe=   32 fps=0.6 q=51.0 size=       0KiB time=00:00:00.50 bitrate=   0.7kbits/s speed=0.00942x elapsed=0:00:53.05    \nframe=   32 fps=0.6 q=51.0 size=       0KiB time=00:00:00.50 bitrate=   0.7kbits/s speed=0.00933x elapsed=0:00:53.57    \nframe=   33 fps=0.6 q=51.0 size=       0KiB time=00:00:00.51 bitrate=   0.7kbits/s speed=0.00955x elapsed=0:00:54.09    \nframe=   33 fps=0.6 q=51.0 size=       0KiB time=00:00:00.51 bitrate=   0.7kbits/s speed=0.00946x elapsed=0:00:54.61    \nframe=   33 fps=0.6 q=51.0 size=       0KiB time=00:00:00.51 bitrate=   0.7kbits/s speed=0.00937x elapsed=0:00:55.14    \nframe=   34 fps=0.6 q=51.0 size=       0KiB time=00:00:00.53 bitrate=   0.7kbits/s speed=0.00958x elapsed=0:00:55.67    \nframe=   34 fps=0.6 q=51.0 size=       0KiB time=00:00:00.53 bitrate=   0.7kbits/s speed=0.00949x elapsed=0:00:56.19    \nframe=   35 fps=0.6 q=51.0 size=       0KiB time=00:00:00.55 bitrate=   0.6kbits/s speed=0.0097x elapsed=0:00:56.71    \nframe=   35 fps=0.6 q=51.0 size=       0KiB time=00:00:00.55 bitrate=   0.6kbits/s speed=0.00961x elapsed=0:00:57.23    \nx265 [warning]: poc:38, VBV underflow (-2635 bits)\nframe=   36 fps=0.6 q=51.0 size=       0KiB time=00:00:00.56 bitrate=   0.6kbits/s speed=0.0098x elapsed=0:00:57.79    \nframe=   36 fps=0.6 q=51.0 size=       0KiB time=00:00:00.56 bitrate=   0.6kbits/s speed=0.00971x elapsed=0:00:58.35    \nx265 [warning]: poc:36, VBV underflow (-27821 bits)\nframe=   37 fps=0.6 q=51.0 size=       0KiB time=00:00:00.58 bitrate=   0.6kbits/s speed=0.0099x elapsed=0:00:58.90    \nframe=   37 fps=0.6 q=51.0 size=       0KiB time=00:00:00.58 bitrate=   0.6kbits/s speed=0.00982x elapsed=0:00:59.42    \nx265 [warning]: poc:35, VBV underflow (-9885 bits)\nframe=   38 fps=0.6 q=51.0 size=       0KiB time=00:00:00.60 bitrate=   0.6kbits/s speed=0.01x elapsed=0:00:59.97    \nframe=   38 fps=0.6 q=51.0 size=       0KiB time=00:00:00.60 bitrate=   0.6kbits/s speed=0.00992x elapsed=0:01:00.50    \nframe=   38 fps=0.6 q=51.0 size=       0KiB time=00:00:00.60 bitrate=   0.6kbits/s speed=0.00983x elapsed=0:01:01.01    \nframe=   38 fps=0.6 q=51.0 size=       0KiB time=00:00:00.60 bitrate=   0.6kbits/s speed=0.00975x elapsed=0:01:01.53    \nx265 [warning]: poc:37, VBV underflow (-10301 bits)\nframe=   39 fps=0.6 q=51.0 size=       0KiB time=00:00:00.61 bitrate=   0.6kbits/s speed=0.00993x elapsed=0:01:02.07    \nx265 [warning]: poc:42, VBV underflow (-37645 bits)\nframe=   40 fps=0.6 q=51.0 size=       0KiB time=00:00:00.63 bitrate=   0.6kbits/s speed=0.0101x elapsed=0:01:02.62    \nframe=   40 fps=0.6 q=51.0 size=       0KiB time=00:00:00.63 bitrate=   0.6kbits/s speed=0.01x elapsed=0:01:03.14    \nx265 [warning]: poc:40, VBV underflow (-29837 bits)\nframe=   41 fps=0.6 q=51.0 size=       0KiB time=00:00:00.65 bitrate=   0.5kbits/s speed=0.0102x elapsed=0:01:03.67    \nframe=   41 fps=0.6 q=51.0 size=       0KiB time=00:00:00.65 bitrate=   0.5kbits/s speed=0.0101x elapsed=0:01:04.20    \nx265 [warning]: poc:39, VBV underflow (-11349 bits)\nframe=   42 fps=0.6 q=51.0 size=       0KiB time=00:00:00.66 bitrate=   0.5kbits/s speed=0.0103x elapsed=0:01:04.73    \nframe=   42 fps=0.6 q=51.0 size=       0KiB time=00:00:00.66 bitrate=   0.5kbits/s speed=0.0102x elapsed=0:01:05.27    \nframe=   42 fps=0.6 q=51.0 size=       0KiB time=00:00:00.66 bitrate=   0.5kbits/s speed=0.0101x elapsed=0:01:05.80    \nframe=   42 fps=0.6 q=51.0 size=       0KiB time=00:00:00.66 bitrate=   0.5kbits/s speed=0.01x elapsed=0:01:06.33    \nx265 [warning]: poc:41, VBV underflow (-10661 bits)\nframe=   43 fps=0.6 q=51.0 size=       0KiB time=00:00:00.68 bitrate=   0.5kbits/s speed=0.0102x elapsed=0:01:06.88    \nframe=   43 fps=0.6 q=51.0 size=       0KiB time=00:00:00.68 bitrate=   0.5kbits/s speed=0.0101x elapsed=0:01:07.42    \nx265 [warning]: poc:46, VBV underflow (-38021 bits)\nframe=   44 fps=0.6 q=51.0 size=       0KiB time=00:00:00.70 bitrate=   0.5kbits/s speed=0.0103x elapsed=0:01:07.93    \nx265 [warning]: poc:44, VBV underflow (-30949 bits)\nframe=   45 fps=0.7 q=51.0 size=       0KiB time=00:00:00.71 bitrate=   0.5kbits/s speed=0.0105x elapsed=0:01:08.46    \nx265 [warning]: poc:43, VBV underflow (-10821 bits)\nframe=   46 fps=0.7 q=51.0 size=       0KiB time=00:00:00.73 bitrate=   0.5kbits/s speed=0.0106x elapsed=0:01:08.99    \nframe=   46 fps=0.7 q=51.0 size=       0KiB time=00:00:00.73 bitrate=   0.5kbits/s speed=0.0105x elapsed=0:01:09.52    \nx265 [warning]: poc:45, VBV underflow (-11773 bits)\nframe=   47 fps=0.7 q=51.0 size=       0KiB time=00:00:00.75 bitrate=   0.5kbits/s speed=0.0107x elapsed=0:01:10.04    \nframe=   47 fps=0.7 q=51.0 size=       0KiB time=00:00:00.75 bitrate=   0.5kbits/s speed=0.0106x elapsed=0:01:10.60    \nframe=   47 fps=0.7 q=51.0 size=       0KiB time=00:00:00.75 bitrate=   0.5kbits/s speed=0.0105x elapsed=0:01:11.13    \nframe=   47 fps=0.7 q=51.0 size=       0KiB time=00:00:00.75 bitrate=   0.5kbits/s speed=0.0105x elapsed=0:01:11.65    \nframe=   47 fps=0.7 q=51.0 size=       0KiB time=00:00:00.75 bitrate=   0.5kbits/s speed=0.0104x elapsed=0:01:12.17    \nx265 [warning]: poc:50, VBV underflow (-39517 bits)\nx265 [warning]: poc:48, VBV underflow (-30189 bits)\nframe=   49 fps=0.7 q=51.0 size=       0KiB time=00:00:00.78 bitrate=   0.4kbits/s speed=0.0108x elapsed=0:01:12.69    \nframe=   49 fps=0.7 q=51.0 size=       0KiB time=00:00:00.78 bitrate=   0.4kbits/s speed=0.0107x elapsed=0:01:13.23    \nframe=   49 fps=0.7 q=51.0 size=       0KiB time=00:00:00.78 bitrate=   0.4kbits/s speed=0.0106x elapsed=0:01:13.78    \nframe=   49 fps=0.7 q=51.0 size=       0KiB time=00:00:00.78 bitrate=   0.4kbits/s speed=0.0105x elapsed=0:01:14.30    \nx265 [warning]: poc:47, VBV underflow (-12029 bits)\nframe=   50 fps=0.7 q=51.0 size=       0KiB time=00:00:00.80 bitrate=   0.4kbits/s speed=0.0107x elapsed=0:01:14.83    \nframe=   50 fps=0.7 q=51.0 size=       0KiB time=00:00:00.80 bitrate=   0.4kbits/s speed=0.0106x elapsed=0:01:15.36    \nframe=   50 fps=0.7 q=51.0 size=       0KiB time=00:00:00.80 bitrate=   0.4kbits/s speed=0.0105x elapsed=0:01:15.89    \nframe=   50 fps=0.7 q=51.0 size=       0KiB time=00:00:00.80 bitrate=   0.4kbits/s speed=0.0105x elapsed=0:01:16.42    \nframe=   50 fps=0.6 q=51.0 size=       0KiB time=00:00:00.80 bitrate=   0.4kbits/s speed=0.0104x elapsed=0:01:16.94    \nx265 [warning]: poc:49, VBV underflow (-12333 bits)\nframe=   51 fps=0.7 q=51.0 size=       0KiB time=00:00:00.81 bitrate=   0.4kbits/s speed=0.0105x elapsed=0:01:17.46    \nframe=   51 fps=0.7 q=51.0 size=       0KiB time=00:00:00.81 bitrate=   0.4kbits/s speed=0.0105x elapsed=0:01:17.99    \nframe=   51 fps=0.6 q=51.0 size=       0KiB time=00:00:00.81 bitrate=   0.4kbits/s speed=0.0104x elapsed=0:01:18.50    \nx265 [warning]: poc:55, VBV underflow (-40973 bits)\nframe=   52 fps=0.7 q=51.0 size=       0KiB time=00:00:00.83 bitrate=   0.4kbits/s speed=0.0105x elapsed=0:01:19.02    \nframe=   52 fps=0.7 q=51.0 size=       0KiB time=00:00:00.83 bitrate=   0.4kbits/s speed=0.0105x elapsed=0:01:19.53    \nframe=   52 fps=0.6 q=51.0 size=       0KiB time=00:00:00.83 bitrate=   0.4kbits/s speed=0.0104x elapsed=0:01:20.07    \nx265 [warning]: poc:53, VBV underflow (-34213 bits)\nframe=   53 fps=0.7 q=51.0 size=       0KiB time=00:00:00.85 bitrate=   0.4kbits/s speed=0.0105x elapsed=0:01:20.60    \nframe=   53 fps=0.7 q=51.0 size=       0KiB time=00:00:00.85 bitrate=   0.4kbits/s speed=0.0105x elapsed=0:01:21.13    \nframe=   53 fps=0.6 q=51.0 size=       0KiB time=00:00:00.85 bitrate=   0.4kbits/s speed=0.0104x elapsed=0:01:21.66    \nx265 [warning]: poc:51, VBV underflow (-20661 bits)\nframe=   54 fps=0.7 q=51.0 size=       0KiB time=00:00:00.86 bitrate=   0.4kbits/s speed=0.0105x elapsed=0:01:22.18    \nframe=   54 fps=0.7 q=51.0 size=       0KiB time=00:00:00.86 bitrate=   0.4kbits/s speed=0.0105x elapsed=0:01:22.70    \nx265 [warning]: poc:52, VBV underflow (-21309 bits)\nframe=   55 fps=0.7 q=51.0 size=       0KiB time=00:00:00.88 bitrate=   0.4kbits/s speed=0.0106x elapsed=0:01:23.23    \nframe=   55 fps=0.7 q=51.0 size=       0KiB time=00:00:00.88 bitrate=   0.4kbits/s speed=0.0105x elapsed=0:01:23.76    \nframe=   55 fps=0.7 q=51.0 size=       0KiB time=00:00:00.88 bitrate=   0.4kbits/s speed=0.0105x elapsed=0:01:24.29    \nx265 [warning]: poc:54, VBV underflow (-12285 bits)\nframe=   56 fps=0.7 q=51.0 size=       0KiB time=00:00:00.90 bitrate=   0.4kbits/s speed=0.0106x elapsed=0:01:24.87    \nframe=   56 fps=0.7 q=51.0 size=       0KiB time=00:00:00.90 bitrate=   0.4kbits/s speed=0.0105x elapsed=0:01:25.38    \nframe=   56 fps=0.7 q=51.0 size=       0KiB time=00:00:00.90 bitrate=   0.4kbits/s speed=0.0105x elapsed=0:01:25.90    \nframe=   56 fps=0.6 q=51.0 size=       0KiB time=00:00:00.90 bitrate=   0.4kbits/s speed=0.0104x elapsed=0:01:26.43    \nx265 [warning]: poc:59, VBV underflow (-38829 bits)\nframe=   57 fps=0.7 q=51.0 size=     256KiB time=00:00:00.91 bitrate=2288.2kbits/s speed=0.0105x elapsed=0:01:26.98    \nframe=   57 fps=0.7 q=51.0 size=     256KiB time=00:00:00.91 bitrate=2288.2kbits/s speed=0.0105x elapsed=0:01:27.51    \nframe=   57 fps=0.6 q=51.0 size=     256KiB time=00:00:00.91 bitrate=2288.2kbits/s speed=0.0104x elapsed=0:01:28.06    \nx265 [warning]: poc:57, VBV underflow (-32021 bits)\nframe=   58 fps=0.7 q=51.0 size=     256KiB time=00:00:00.93 bitrate=2247.3kbits/s speed=0.0105x elapsed=0:01:28.58    \nframe=   58 fps=0.7 q=51.0 size=     256KiB time=00:00:00.93 bitrate=2247.3kbits/s speed=0.0105x elapsed=0:01:29.11    \nx265 [warning]: poc:56, VBV underflow (-10789 bits)\nframe=   59 fps=0.7 q=51.0 size=     256KiB time=00:00:00.95 bitrate=2207.9kbits/s speed=0.0106x elapsed=0:01:29.64    \nframe=   59 fps=0.7 q=51.0 size=     256KiB time=00:00:00.95 bitrate=2207.9kbits/s speed=0.0105x elapsed=0:01:30.20    \nframe=   59 fps=0.7 q=51.0 size=     256KiB time=00:00:00.95 bitrate=2207.9kbits/s speed=0.0105x elapsed=0:01:30.74    \nx265 [warning]: poc:58, VBV underflow (-12885 bits)\nframe=   60 fps=0.7 q=51.0 size=     256KiB time=00:00:00.96 bitrate=2169.8kbits/s speed=0.0106x elapsed=0:01:31.29    \nframe=   60 fps=0.7 q=51.0 size=     256KiB time=00:00:00.96 bitrate=2169.8kbits/s speed=0.0105x elapsed=0:01:31.83    \nx265 [warning]: poc:63, VBV underflow (-38669 bits)\nframe=   61 fps=0.7 q=51.0 size=     256KiB time=00:00:00.98 bitrate=2133.1kbits/s speed=0.0106x elapsed=0:01:32.37    \nframe=   61 fps=0.7 q=51.0 size=     256KiB time=00:00:00.98 bitrate=2133.1kbits/s speed=0.0106x elapsed=0:01:32.90    \nx265 [warning]: poc:61, VBV underflow (-29709 bits)\nframe=   62 fps=0.7 q=51.0 size=     256KiB time=00:00:01.00 bitrate=2097.5kbits/s speed=0.0107x elapsed=0:01:33.43    \nframe=   62 fps=0.7 q=51.0 size=     256KiB time=00:00:01.00 bitrate=2097.5kbits/s speed=0.0106x elapsed=0:01:33.95    \nframe=   62 fps=0.7 q=51.0 size=     256KiB time=00:00:01.00 bitrate=2097.5kbits/s speed=0.0106x elapsed=0:01:34.48    \nx265 [warning]: poc:60, VBV underflow (-10709 bits)\nframe=   63 fps=0.7 q=51.0 size=     256KiB time=00:00:01.01 bitrate=2063.1kbits/s speed=0.0107x elapsed=0:01:35.01    \nx265 [warning]: poc:62, VBV underflow (-11629 bits)\nframe=   64 fps=0.7 q=51.0 size=     256KiB time=00:00:01.03 bitrate=2029.8kbits/s speed=0.0108x elapsed=0:01:35.55    \nframe=   64 fps=0.7 q=51.0 size=     256KiB time=00:00:01.03 bitrate=2029.8kbits/s speed=0.0108x elapsed=0:01:36.08    \nx265 [warning]: poc:67, VBV underflow (-41069 bits)\nframe=   65 fps=0.7 q=51.0 size=     256KiB time=00:00:01.05 bitrate=1997.6kbits/s speed=0.0109x elapsed=0:01:36.61    \nframe=   65 fps=0.7 q=51.0 size=     256KiB time=00:00:01.05 bitrate=1997.6kbits/s speed=0.0108x elapsed=0:01:37.14    \nframe=   65 fps=0.7 q=51.0 size=     256KiB time=00:00:01.05 bitrate=1997.6kbits/s speed=0.0107x elapsed=0:01:37.69    \nx265 [warning]: poc:65, VBV underflow (-30773 bits)\nframe=   66 fps=0.7 q=51.0 size=     256KiB time=00:00:01.06 bitrate=1966.4kbits/s speed=0.0109x elapsed=0:01:38.21    \nx265 [warning]: poc:64, VBV underflow (-12077 bits)\nframe=   67 fps=0.7 q=51.0 size=     256KiB time=00:00:01.08 bitrate=1936.2kbits/s speed=0.011x elapsed=0:01:38.74    \nframe=   67 fps=0.7 q=51.0 size=     256KiB time=00:00:01.08 bitrate=1936.2kbits/s speed=0.0109x elapsed=0:01:39.26    \nx265 [warning]: poc:66, VBV underflow (-11237 bits)\nframe=   68 fps=0.7 q=51.0 size=     256KiB time=00:00:01.10 bitrate=1906.8kbits/s speed=0.011x elapsed=0:01:39.77    \nframe=   68 fps=0.7 q=51.0 size=     256KiB time=00:00:01.10 bitrate=1906.8kbits/s speed=0.011x elapsed=0:01:40.28    \nframe=   68 fps=0.7 q=51.0 size=     256KiB time=00:00:01.10 bitrate=1906.8kbits/s speed=0.0109x elapsed=0:01:40.80    \nframe=   68 fps=0.7 q=51.0 size=     256KiB time=00:00:01.10 bitrate=1906.8kbits/s speed=0.0109x elapsed=0:01:41.35    \nframe=   68 fps=0.7 q=51.0 size=     256KiB time=00:00:01.10 bitrate=1906.8kbits/s speed=0.0108x elapsed=0:01:41.88    \nframe=   68 fps=0.7 q=51.0 size=     256KiB time=00:00:01.10 bitrate=1906.8kbits/s speed=0.0107x elapsed=0:01:42.43    \nframe=   68 fps=0.7 q=51.0 size=     256KiB time=00:00:01.10 bitrate=1906.8kbits/s speed=0.0107x elapsed=0:01:42.95    \nframe=   68 fps=0.7 q=51.0 size=     256KiB time=00:00:01.10 bitrate=1906.8kbits/s speed=0.0106x elapsed=0:01:43.49    \nx265 [warning]: poc:71, VBV underflow (-40549 bits)\nframe=   69 fps=0.7 q=51.0 size=     256KiB time=00:00:01.11 bitrate=1878.4kbits/s speed=0.0107x elapsed=0:01:44.01    \nframe=   69 fps=0.7 q=51.0 size=     256KiB time=00:00:01.11 bitrate=1878.4kbits/s speed=0.0107x elapsed=0:01:44.51    \nx265 [warning]: poc:69, VBV underflow (-33277 bits)\nframe=   70 fps=0.7 q=51.0 size=     256KiB time=00:00:01.13 bitrate=1850.7kbits/s speed=0.0108x elapsed=0:01:45.05    \nframe=   70 fps=0.7 q=51.0 size=     256KiB time=00:00:01.13 bitrate=1850.7kbits/s speed=0.0107x elapsed=0:01:45.61    \nx265 [warning]: poc:68, VBV underflow (-11661 bits)\nframe=   71 fps=0.7 q=51.0 size=     256KiB time=00:00:01.15 bitrate=1823.9kbits/s speed=0.0108x elapsed=0:01:46.15    \nx265 [warning]: poc:70, VBV underflow (-12693 bits)\nframe=   72 fps=0.7 q=51.0 size=     256KiB time=00:00:01.16 bitrate=1797.9kbits/s speed=0.0109x elapsed=0:01:46.71    \nframe=   72 fps=0.7 q=51.0 size=     256KiB time=00:00:01.16 bitrate=1797.9kbits/s speed=0.0109x elapsed=0:01:47.26    \nframe=   72 fps=0.7 q=51.0 size=     256KiB time=00:00:01.16 bitrate=1797.9kbits/s speed=0.0108x elapsed=0:01:47.78    \nx265 [warning]: poc:75, VBV underflow (-41093 bits)\nframe=   73 fps=0.7 q=51.0 size=     256KiB time=00:00:01.18 bitrate=1772.5kbits/s speed=0.0109x elapsed=0:01:48.35    \nx265 [warning]: poc:73, VBV underflow (-31957 bits)\nframe=   74 fps=0.7 q=51.0 size=     256KiB time=00:00:01.20 bitrate=1747.9kbits/s speed=0.011x elapsed=0:01:48.87    \nframe=   74 fps=0.7 q=51.0 size=     256KiB time=00:00:01.20 bitrate=1747.9kbits/s speed=0.011x elapsed=0:01:49.38    \nframe=   74 fps=0.7 q=51.0 size=     256KiB time=00:00:01.20 bitrate=1747.9kbits/s speed=0.0109x elapsed=0:01:49.89    \nx265 [warning]: poc:72, VBV underflow (-12997 bits)\nframe=   75 fps=0.7 q=51.0 size=     256KiB time=00:00:01.20 bitrate=1747.9kbits/s speed=0.0109x elapsed=0:01:50.42    \nframe=   75 fps=0.7 q=51.0 size=     256KiB time=00:00:01.21 bitrate=1724.0kbits/s speed=0.011x elapsed=0:01:51.01    \nframe=   75 fps=0.7 q=51.0 size=     256KiB time=00:00:01.21 bitrate=1724.0kbits/s speed=0.0109x elapsed=0:01:51.56    \nframe=   75 fps=0.7 q=51.0 size=     256KiB time=00:00:01.21 bitrate=1724.0kbits/s speed=0.0109x elapsed=0:01:52.11    \nx265 [warning]: poc:74, VBV underflow (-13709 bits)\nframe=   76 fps=0.7 q=51.0 size=     256KiB time=00:00:01.23 bitrate=1700.7kbits/s speed=0.0109x elapsed=0:01:52.65    \nframe=   76 fps=0.7 q=51.0 size=     256KiB time=00:00:01.23 bitrate=1700.7kbits/s speed=0.0109x elapsed=0:01:53.23    \nframe=   76 fps=0.7 q=51.0 size=     256KiB time=00:00:01.23 bitrate=1700.7kbits/s speed=0.0108x elapsed=0:01:53.78    \nx265 [warning]: poc:79, VBV underflow (-41005 bits)\nframe=   77 fps=0.7 q=51.0 size=     256KiB time=00:00:01.25 bitrate=1678.0kbits/s speed=0.0109x elapsed=0:01:54.31    \nframe=   77 fps=0.7 q=51.0 size=     256KiB time=00:00:01.25 bitrate=1678.0kbits/s speed=0.0109x elapsed=0:01:54.87    \nx265 [warning]: poc:77, VBV underflow (-32821 bits)\nframe=   78 fps=0.7 q=51.0 size=     256KiB time=00:00:01.26 bitrate=1655.9kbits/s speed=0.011x elapsed=0:01:55.41    \nframe=   78 fps=0.7 q=51.0 size=     256KiB time=00:00:01.26 bitrate=1655.9kbits/s speed=0.0109x elapsed=0:01:55.93    \nframe=   78 fps=0.7 q=51.0 size=     256KiB time=00:00:01.26 bitrate=1655.9kbits/s speed=0.0109x elapsed=0:01:56.49    \nx265 [warning]: poc:76, VBV underflow (-13613 bits)\nframe=   79 fps=0.7 q=51.0 size=     256KiB time=00:00:01.28 bitrate=1634.4kbits/s speed=0.011x elapsed=0:01:57.03    \nframe=   79 fps=0.7 q=51.0 size=     256KiB time=00:00:01.28 bitrate=1634.4kbits/s speed=0.0109x elapsed=0:01:57.56    \nframe=   79 fps=0.7 q=51.0 size=     256KiB time=00:00:01.28 bitrate=1634.4kbits/s speed=0.0109x elapsed=0:01:58.12    \nx265 [warning]: poc:78, VBV underflow (-11661 bits)\nframe=   80 fps=0.7 q=51.0 size=     256KiB time=00:00:01.30 bitrate=1613.5kbits/s speed=0.011x elapsed=0:01:58.64    \nframe=   80 fps=0.7 q=51.0 size=     256KiB time=00:00:01.30 bitrate=1613.5kbits/s speed=0.0109x elapsed=0:01:59.18    \nx265 [warning]: poc:84, VBV underflow (-41077 bits)\nframe=   81 fps=0.7 q=51.0 size=     256KiB time=00:00:01.31 bitrate=1593.0kbits/s speed=0.011x elapsed=0:01:59.75    \nframe=   81 fps=0.7 q=51.0 size=     256KiB time=00:00:01.31 bitrate=1593.0kbits/s speed=0.0109x elapsed=0:02:00.28    \nx265 [warning]: poc:82, VBV underflow (-34341 bits)\nframe=   82 fps=0.7 q=51.0 size=     256KiB time=00:00:01.31 bitrate=1593.0kbits/s speed=0.0109x elapsed=0:02:00.81    \nframe=   82 fps=0.7 q=51.0 size=     256KiB time=00:00:01.33 bitrate=1573.1kbits/s speed=0.011x elapsed=0:02:01.34    \nx265 [warning]: poc:80, VBV underflow (-21349 bits)\nframe=   83 fps=0.7 q=51.0 size=     256KiB time=00:00:01.35 bitrate=1553.7kbits/s speed=0.0111x elapsed=0:02:01.88    \nframe=   83 fps=0.7 q=51.0 size=     256KiB time=00:00:01.35 bitrate=1553.7kbits/s speed=0.011x elapsed=0:02:02.41    \nframe=   83 fps=0.7 q=51.0 size=     256KiB time=00:00:01.35 bitrate=1553.7kbits/s speed=0.011x elapsed=0:02:02.99    \nframe=   83 fps=0.7 q=51.0 size=     256KiB time=00:00:01.35 bitrate=1553.7kbits/s speed=0.0109x elapsed=0:02:03.58    \nx265 [warning]: poc:81, VBV underflow (-21797 bits)\nframe=   84 fps=0.7 q=51.0 size=     256KiB time=00:00:01.36 bitrate=1534.8kbits/s speed=0.011x elapsed=0:02:04.14    \nframe=   84 fps=0.7 q=51.0 size=     256KiB time=00:00:01.36 bitrate=1534.8kbits/s speed=0.011x elapsed=0:02:04.66    \nx265 [warning]: poc:83, VBV underflow (-11509 bits)\nframe=   85 fps=0.7 q=51.0 size=     256KiB time=00:00:01.38 bitrate=1516.3kbits/s speed=0.011x elapsed=0:02:05.23    \nframe=   85 fps=0.7 q=51.0 size=     256KiB time=00:00:01.38 bitrate=1516.3kbits/s speed=0.011x elapsed=0:02:05.81    \nframe=   85 fps=0.7 q=51.0 size=     256KiB time=00:00:01.38 bitrate=1516.3kbits/s speed=0.0109x elapsed=0:02:06.34    \nframe=   85 fps=0.7 q=51.0 size=     256KiB time=00:00:01.38 bitrate=1516.3kbits/s speed=0.0109x elapsed=0:02:06.90    \nx265 [warning]: poc:89, VBV underflow (-41181 bits)\nframe=   86 fps=0.7 q=51.0 size=     256KiB time=00:00:01.40 bitrate=1498.2kbits/s speed=0.011x elapsed=0:02:07.47    \nframe=   86 fps=0.7 q=51.0 size=     256KiB time=00:00:01.40 bitrate=1498.2kbits/s speed=0.0109x elapsed=0:02:08.02    \nframe=   86 fps=0.7 q=51.0 size=     256KiB time=00:00:01.40 bitrate=1498.2kbits/s speed=0.0109x elapsed=0:02:08.58    \nframe=   86 fps=0.7 q=51.0 size=     256KiB time=00:00:01.40 bitrate=1498.2kbits/s speed=0.0108x elapsed=0:02:09.13    \nframe=   86 fps=0.7 q=51.0 size=     256KiB time=00:00:01.40 bitrate=1498.2kbits/s speed=0.0108x elapsed=0:02:09.68    \nx265 [warning]: poc:87, VBV underflow (-33101 bits)\nframe=   87 fps=0.7 q=51.0 size=     256KiB time=00:00:01.41 bitrate=1480.6kbits/s speed=0.0109x elapsed=0:02:10.20    \nframe=   87 fps=0.7 q=51.0 size=     256KiB time=00:00:01.41 bitrate=1480.6kbits/s speed=0.0108x elapsed=0:02:10.73    \nframe=   87 fps=0.7 q=51.0 size=     256KiB time=00:00:01.41 bitrate=1480.6kbits/s speed=0.0108x elapsed=0:02:11.25    \nx265 [warning]: poc:85, VBV underflow (-21589 bits)\nframe=   88 fps=0.7 q=51.0 size=     256KiB time=00:00:01.43 bitrate=1463.4kbits/s speed=0.0109x elapsed=0:02:11.77    \nframe=   88 fps=0.7 q=51.0 size=     256KiB time=00:00:01.43 bitrate=1463.4kbits/s speed=0.0108x elapsed=0:02:12.29    \nframe=   88 fps=0.7 q=51.0 size=     256KiB time=00:00:01.43 bitrate=1463.4kbits/s speed=0.0108x elapsed=0:02:12.83    \nx265 [warning]: poc:86, VBV underflow (-19813 bits)\nframe=   89 fps=0.7 q=51.0 size=     256KiB time=00:00:01.45 bitrate=1446.6kbits/s speed=0.0109x elapsed=0:02:13.37    \nframe=   89 fps=0.7 q=51.0 size=     256KiB time=00:00:01.45 bitrate=1446.6kbits/s speed=0.0108x elapsed=0:02:13.90    \nx265 [warning]: poc:88, VBV underflow (-10725 bits)\nframe=   90 fps=0.7 q=51.0 size=     256KiB time=00:00:01.46 bitrate=1430.1kbits/s speed=0.0109x elapsed=0:02:14.41    \nx265 [warning]: poc:93, VBV underflow (-41157 bits)\nframe=   91 fps=0.7 q=51.0 size=     256KiB time=00:00:01.48 bitrate=1414.0kbits/s speed=0.011x elapsed=0:02:14.93    \nframe=   91 fps=0.7 q=51.0 size=     256KiB time=00:00:01.48 bitrate=1414.0kbits/s speed=0.011x elapsed=0:02:15.44    \nframe=   91 fps=0.7 q=51.0 size=     256KiB time=00:00:01.48 bitrate=1414.0kbits/s speed=0.0109x elapsed=0:02:15.99    \nx265 [warning]: poc:91, VBV underflow (-31909 bits)\nframe=   92 fps=0.7 q=51.0 size=     256KiB time=00:00:01.50 bitrate=1398.3kbits/s speed=0.011x elapsed=0:02:16.52    \nx265 [warning]: poc:90, VBV underflow (-12037 bits)\nframe=   93 fps=0.7 q=51.0 size=     256KiB time=00:00:01.51 bitrate=1383.0kbits/s speed=0.0111x elapsed=0:02:17.04    \nframe=   93 fps=0.7 q=51.0 size=     256KiB time=00:00:01.51 bitrate=1383.0kbits/s speed=0.011x elapsed=0:02:17.58    \nframe=   93 fps=0.7 q=51.0 size=     256KiB time=00:00:01.51 bitrate=1383.0kbits/s speed=0.011x elapsed=0:02:18.14    \nx265 [warning]: poc:92, VBV underflow (-12877 bits)\nframe=   94 fps=0.7 q=51.0 size=     256KiB time=00:00:01.53 bitrate=1367.9kbits/s speed=0.0111x elapsed=0:02:18.67    \nframe=   94 fps=0.7 q=51.0 size=     256KiB time=00:00:01.53 bitrate=1367.9kbits/s speed=0.011x elapsed=0:02:19.20    \nx265 [warning]: poc:97, VBV underflow (-40533 bits)\nframe=   95 fps=0.7 q=51.0 size=     256KiB time=00:00:01.55 bitrate=1353.2kbits/s speed=0.0111x elapsed=0:02:19.73    \nframe=   95 fps=0.7 q=51.0 size=     256KiB time=00:00:01.55 bitrate=1353.2kbits/s speed=0.0111x elapsed=0:02:20.24    \nx265 [warning]: poc:95, VBV underflow (-31389 bits)\nframe=   96 fps=0.7 q=51.0 size=     256KiB time=00:00:01.56 bitrate=1338.8kbits/s speed=0.0111x elapsed=0:02:20.76    \nframe=   96 fps=0.7 q=51.0 size=     256KiB time=00:00:01.56 bitrate=1338.8kbits/s speed=0.0111x elapsed=0:02:21.29    \nframe=   96 fps=0.7 q=51.0 size=     256KiB time=00:00:01.56 bitrate=1338.8kbits/s speed=0.011x elapsed=0:02:21.82    \nframe=   96 fps=0.7 q=51.0 size=     256KiB time=00:00:01.56 bitrate=1338.8kbits/s speed=0.011x elapsed=0:02:22.38    \nx265 [warning]: poc:94, VBV underflow (-11357 bits)\nframe=   97 fps=0.7 q=51.0 size=     256KiB time=00:00:01.58 bitrate=1324.7kbits/s speed=0.0111x elapsed=0:02:22.91    \nframe=   97 fps=0.7 q=51.0 size=     256KiB time=00:00:01.58 bitrate=1324.7kbits/s speed=0.011x elapsed=0:02:23.43    \nx265 [warning]: poc:96, VBV underflow (-11357 bits)\nframe=   98 fps=0.7 q=51.0 size=     256KiB time=00:00:01.60 bitrate=1310.9kbits/s speed=0.0111x elapsed=0:02:23.96    \nx265 [warning]: poc:101, VBV underflow (-37693 bits)\nframe=   99 fps=0.7 q=51.0 size=     256KiB time=00:00:01.61 bitrate=1297.4kbits/s speed=0.0112x elapsed=0:02:24.48    \nframe=   99 fps=0.7 q=51.0 size=     256KiB time=00:00:01.61 bitrate=1297.4kbits/s speed=0.0111x elapsed=0:02:25.03    \nframe=   99 fps=0.7 q=51.0 size=     256KiB time=00:00:01.61 bitrate=1297.4kbits/s speed=0.0111x elapsed=0:02:25.55    \nx265 [warning]: poc:99, VBV underflow (-31285 bits)\nframe=  100 fps=0.7 q=51.0 size=     256KiB time=00:00:01.63 bitrate=1284.2kbits/s speed=0.0112x elapsed=0:02:26.09    \nframe=  100 fps=0.7 q=51.0 size=     256KiB time=00:00:01.63 bitrate=1284.2kbits/s speed=0.0111x elapsed=0:02:26.62    \nframe=  100 fps=0.7 q=51.0 size=     256KiB time=00:00:01.63 bitrate=1284.2kbits/s speed=0.0111x elapsed=0:02:27.16    \nframe=  100 fps=0.7 q=51.0 size=     256KiB time=00:00:01.63 bitrate=1284.2kbits/s speed=0.0111x elapsed=0:02:27.69    \nx265 [warning]: poc:98, VBV underflow (-11181 bits)\nframe=  101 fps=0.7 q=51.0 size=     256KiB time=00:00:01.65 bitrate=1271.2kbits/s speed=0.0111x elapsed=0:02:28.20    \nframe=  101 fps=0.7 q=51.0 size=     256KiB time=00:00:01.65 bitrate=1271.2kbits/s speed=0.0111x elapsed=0:02:28.74    \nframe=  101 fps=0.7 q=51.0 size=     256KiB time=00:00:01.65 bitrate=1271.2kbits/s speed=0.0111x elapsed=0:02:29.26    \nx265 [warning]: poc:100, VBV underflow (-10773 bits)\nframe=  102 fps=0.7 q=51.0 size=     256KiB time=00:00:01.66 bitrate=1258.5kbits/s speed=0.0111x elapsed=0:02:29.78    \nframe=  102 fps=0.7 q=51.0 size=     256KiB time=00:00:01.66 bitrate=1258.5kbits/s speed=0.0111x elapsed=0:02:30.31    \nframe=  102 fps=0.7 q=51.0 size=     256KiB time=00:00:01.66 bitrate=1258.5kbits/s speed=0.011x elapsed=0:02:30.85    \nx265 [warning]: poc:105, VBV underflow (-40821 bits)\nframe=  103 fps=0.7 q=51.0 size=     256KiB time=00:00:01.68 bitrate=1246.0kbits/s speed=0.0111x elapsed=0:02:31.38    \nx265 [warning]: poc:103, VBV underflow (-29741 bits)\nframe=  104 fps=0.7 q=51.0 size=     256KiB time=00:00:01.70 bitrate=1233.8kbits/s speed=0.0112x elapsed=0:02:31.92    \nframe=  104 fps=0.7 q=51.0 size=     256KiB time=00:00:01.70 bitrate=1233.8kbits/s speed=0.0112x elapsed=0:02:32.45    \nx265 [warning]: poc:102, VBV underflow (-9661 bits)\nframe=  105 fps=0.7 q=51.0 size=     256KiB time=00:00:01.71 bitrate=1221.8kbits/s speed=0.0112x elapsed=0:02:32.99    \nframe=  105 fps=0.7 q=51.0 size=     256KiB time=00:00:01.71 bitrate=1221.8kbits/s speed=0.0112x elapsed=0:02:33.52    \nframe=  105 fps=0.7 q=51.0 size=     256KiB time=00:00:01.71 bitrate=1221.8kbits/s speed=0.0111x elapsed=0:02:34.08    \nframe=  105 fps=0.7 q=51.0 size=     256KiB time=00:00:01.71 bitrate=1221.8kbits/s speed=0.0111x elapsed=0:02:34.59    \nframe=  105 fps=0.7 q=51.0 size=     256KiB time=00:00:01.71 bitrate=1221.8kbits/s speed=0.0111x elapsed=0:02:35.12    \nx265 [warning]: poc:104, VBV underflow (-10189 bits)\nframe=  106 fps=0.7 q=51.0 size=     256KiB time=00:00:01.73 bitrate=1210.1kbits/s speed=0.0111x elapsed=0:02:35.67    \nframe=  106 fps=0.7 q=51.0 size=     256KiB time=00:00:01.73 bitrate=1210.1kbits/s speed=0.0111x elapsed=0:02:36.22    \nframe=  106 fps=0.7 q=51.0 size=     256KiB time=00:00:01.73 bitrate=1210.1kbits/s speed=0.0111x elapsed=0:02:36.77    \nx265 [warning]: poc:109, VBV underflow (-40565 bits)\nframe=  107 fps=0.7 q=51.0 size=     256KiB time=00:00:01.75 bitrate=1198.6kbits/s speed=0.0111x elapsed=0:02:37.28    \nframe=  107 fps=0.7 q=51.0 size=     256KiB time=00:00:01.75 bitrate=1198.6kbits/s speed=0.0111x elapsed=0:02:37.82    \nx265 [warning]: poc:107, VBV underflow (-30797 bits)\nframe=  108 fps=0.7 q=51.0 size=     512KiB time=00:00:01.76 bitrate=2374.3kbits/s speed=0.0112x elapsed=0:02:38.35    \nframe=  108 fps=0.7 q=51.0 size=     512KiB time=00:00:01.76 bitrate=2374.3kbits/s speed=0.0111x elapsed=0:02:38.88    \nframe=  108 fps=0.7 q=51.0 size=     512KiB time=00:00:01.76 bitrate=2374.3kbits/s speed=0.0111x elapsed=0:02:39.43    \nframe=  108 fps=0.7 q=51.0 size=     512KiB time=00:00:01.76 bitrate=2374.3kbits/s speed=0.011x elapsed=0:02:39.99    \nframe=  108 fps=0.7 q=51.0 size=     512KiB time=00:00:01.76 bitrate=2374.3kbits/s speed=0.011x elapsed=0:02:40.52    \nx265 [warning]: poc:106, VBV underflow (-11701 bits)\nframe=  109 fps=0.7 q=51.0 size=     512KiB time=00:00:01.78 bitrate=2352.1kbits/s speed=0.0111x elapsed=0:02:41.04    \nframe=  109 fps=0.7 q=51.0 size=     512KiB time=00:00:01.78 bitrate=2352.1kbits/s speed=0.011x elapsed=0:02:41.56    \nframe=  109 fps=0.7 q=51.0 size=     512KiB time=00:00:01.78 bitrate=2352.1kbits/s speed=0.011x elapsed=0:02:42.08    \nx265 [warning]: poc:108, VBV underflow (-10301 bits)\nframe=  110 fps=0.7 q=51.0 size=     512KiB time=00:00:01.80 bitrate=2330.4kbits/s speed=0.0111x elapsed=0:02:42.62    \nframe=  110 fps=0.7 q=51.0 size=     512KiB time=00:00:01.80 bitrate=2330.4kbits/s speed=0.011x elapsed=0:02:43.15    \nframe=  110 fps=0.7 q=51.0 size=     512KiB time=00:00:01.80 bitrate=2330.4kbits/s speed=0.011x elapsed=0:02:43.69    \nx265 [warning]: poc:113, VBV underflow (-38733 bits)\nframe=  111 fps=0.7 q=51.0 size=     512KiB time=00:00:01.81 bitrate=2309.0kbits/s speed=0.0111x elapsed=0:02:44.23    \nframe=  111 fps=0.7 q=51.0 size=     512KiB time=00:00:01.81 bitrate=2309.0kbits/s speed=0.011x elapsed=0:02:44.75    \nx265 [warning]: poc:111, VBV underflow (-30589 bits)\nframe=  112 fps=0.7 q=51.0 size=     512KiB time=00:00:01.83 bitrate=2288.0kbits/s speed=0.0111x elapsed=0:02:45.28    \nframe=  112 fps=0.7 q=51.0 size=     512KiB time=00:00:01.83 bitrate=2288.0kbits/s speed=0.0111x elapsed=0:02:45.83    \nframe=  112 fps=0.7 q=51.0 size=     512KiB time=00:00:01.83 bitrate=2288.0kbits/s speed=0.011x elapsed=0:02:46.38    \nx265 [warning]: poc:110, VBV underflow (-11157 bits)\nframe=  113 fps=0.7 q=51.0 size=     512KiB time=00:00:01.85 bitrate=2267.4kbits/s speed=0.0111x elapsed=0:02:46.90    \nframe=  113 fps=0.7 q=51.0 size=     512KiB time=00:00:01.85 bitrate=2267.4kbits/s speed=0.0111x elapsed=0:02:47.41    \nx265 [warning]: poc:112, VBV underflow (-11725 bits)\nframe=  114 fps=0.7 q=51.0 size=     512KiB time=00:00:01.86 bitrate=2247.1kbits/s speed=0.0111x elapsed=0:02:47.94    \nframe=  114 fps=0.7 q=51.0 size=     512KiB time=00:00:01.86 bitrate=2247.1kbits/s speed=0.0111x elapsed=0:02:48.50    \nframe=  114 fps=0.7 q=51.0 size=     512KiB time=00:00:01.86 bitrate=2247.1kbits/s speed=0.011x elapsed=0:02:49.02    \nx265 [warning]: poc:117, VBV underflow (-39813 bits)\nframe=  115 fps=0.7 q=51.0 size=     512KiB time=00:00:01.88 bitrate=2227.3kbits/s speed=0.0111x elapsed=0:02:49.54    \nframe=  115 fps=0.7 q=51.0 size=     512KiB time=00:00:01.88 bitrate=2227.3kbits/s speed=0.0111x elapsed=0:02:50.07    \nx265 [warning]: poc:115, VBV underflow (-28869 bits)\nframe=  116 fps=0.7 q=51.0 size=     512KiB time=00:00:01.90 bitrate=2207.7kbits/s speed=0.0111x elapsed=0:02:50.60    \nx265 [warning]: poc:114, VBV underflow (-10045 bits)\nframe=  117 fps=0.7 q=51.0 size=     512KiB time=00:00:01.91 bitrate=2188.5kbits/s speed=0.0112x elapsed=0:02:51.13    \nframe=  117 fps=0.7 q=51.0 size=     512KiB time=00:00:01.91 bitrate=2188.5kbits/s speed=0.0112x elapsed=0:02:51.67    \nframe=  117 fps=0.7 q=51.0 size=     512KiB time=00:00:01.91 bitrate=2188.5kbits/s speed=0.0111x elapsed=0:02:52.20    \nx265 [warning]: poc:116, VBV underflow (-10301 bits)\nframe=  118 fps=0.7 q=51.0 size=     512KiB time=00:00:01.93 bitrate=2169.7kbits/s speed=0.0112x elapsed=0:02:52.72    \nframe=  118 fps=0.7 q=51.0 size=     512KiB time=00:00:01.93 bitrate=2169.7kbits/s speed=0.0112x elapsed=0:02:53.23    \nx265 [warning]: poc:121, VBV underflow (-38325 bits)\nx265 [warning]: poc:119, VBV underflow (-30365 bits)\nx265 [warning]: poc:118, VBV underflow (-11941 bits)\nframe=  121 fps=0.7 q=51.0 size=     512KiB time=00:00:01.98 bitrate=2115.0kbits/s speed=0.0114x elapsed=0:02:53.77    \nframe=  121 fps=0.7 q=51.0 size=     512KiB time=00:00:01.98 bitrate=2115.0kbits/s speed=0.0114x elapsed=0:02:54.29    \nx265 [warning]: poc:120, VBV underflow (-12013 bits)\nframe=  122 fps=0.7 q=51.0 size=     512KiB time=00:00:02.00 bitrate=2097.3kbits/s speed=0.0114x elapsed=0:02:54.81    \nx265 [warning]: poc:125, VBV underflow (-37085 bits)\nframe=  123 fps=0.7 q=51.0 size=     512KiB time=00:00:02.01 bitrate=2080.0kbits/s speed=0.0115x elapsed=0:02:55.33    \nframe=  123 fps=0.7 q=51.0 size=     512KiB time=00:00:02.01 bitrate=2080.0kbits/s speed=0.0115x elapsed=0:02:55.87    \nframe=  123 fps=0.7 q=51.0 size=     512KiB time=00:00:02.01 bitrate=2080.0kbits/s speed=0.0114x elapsed=0:02:56.39    \nframe=  123 fps=0.7 q=51.0 size=     512KiB time=00:00:02.01 bitrate=2080.0kbits/s speed=0.0114x elapsed=0:02:56.91    \nx265 [warning]: poc:123, VBV underflow (-28677 bits)\nframe=  124 fps=0.7 q=51.0 size=     512KiB time=00:00:02.03 bitrate=2062.9kbits/s speed=0.0115x elapsed=0:02:57.44    \nframe=  124 fps=0.7 q=51.0 size=     512KiB time=00:00:02.03 bitrate=2062.9kbits/s speed=0.0114x elapsed=0:02:57.97    \nx265 [warning]: poc:122, VBV underflow (-9485 bits)\nframe=  125 fps=0.7 q=51.0 size=     512KiB time=00:00:02.05 bitrate=2046.2kbits/s speed=0.0115x elapsed=0:02:58.49    \nframe=  125 fps=0.7 q=51.0 size=     512KiB time=00:00:02.05 bitrate=2046.2kbits/s speed=0.0115x elapsed=0:02:59.00    \nx265 [warning]: poc:124, VBV underflow (-10133 bits)\nframe=  126 fps=0.7 q=51.0 size=     512KiB time=00:00:02.06 bitrate=2029.7kbits/s speed=0.0115x elapsed=0:02:59.52    \nframe=  126 fps=0.7 q=51.0 size=     512KiB time=00:00:02.06 bitrate=2029.7kbits/s speed=0.0115x elapsed=0:03:00.04    \nframe=  126 fps=0.7 q=51.0 size=     512KiB time=00:00:02.06 bitrate=2029.7kbits/s speed=0.0114x elapsed=0:03:00.59    \nframe=  126 fps=0.7 q=51.0 size=     512KiB time=00:00:02.06 bitrate=2029.7kbits/s speed=0.0114x elapsed=0:03:01.11    \nx265 [warning]: poc:130, VBV underflow (-40533 bits)\nframe=  127 fps=0.7 q=51.0 size=     512KiB time=00:00:02.08 bitrate=2013.4kbits/s speed=0.0115x elapsed=0:03:01.64    \nframe=  127 fps=0.7 q=51.0 size=     512KiB time=00:00:02.08 bitrate=2013.4kbits/s speed=0.0114x elapsed=0:03:02.16    \nx265 [warning]: poc:128, VBV underflow (-32653 bits)\nframe=  128 fps=0.7 q=51.0 size=     512KiB time=00:00:02.10 bitrate=1997.5kbits/s speed=0.0115x elapsed=0:03:02.71    \nframe=  128 fps=0.7 q=51.0 size=     512KiB time=00:00:02.10 bitrate=1997.5kbits/s speed=0.0115x elapsed=0:03:03.23    \nx265 [warning]: poc:126, VBV underflow (-18997 bits)\nframe=  129 fps=0.7 q=51.0 size=     512KiB time=00:00:02.11 bitrate=1981.7kbits/s speed=0.0115x elapsed=0:03:03.75    \nframe=  129 fps=0.7 q=51.0 size=     512KiB time=00:00:02.11 bitrate=1981.7kbits/s speed=0.0115x elapsed=0:03:04.28    \nx265 [warning]: poc:127, VBV underflow (-18933 bits)\nframe=  130 fps=0.7 q=51.0 size=     512KiB time=00:00:02.13 bitrate=1966.2kbits/s speed=0.0115x elapsed=0:03:04.82    \nx265 [warning]: poc:129, VBV underflow (-11613 bits)\nframe=  131 fps=0.7 q=51.0 size=     512KiB time=00:00:02.15 bitrate=1951.0kbits/s speed=0.0116x elapsed=0:03:05.36    \nframe=  131 fps=0.7 q=51.0 size=     512KiB time=00:00:02.15 bitrate=1951.0kbits/s speed=0.0116x elapsed=0:03:05.93    \nframe=  131 fps=0.7 q=51.0 size=     512KiB time=00:00:02.15 bitrate=1951.0kbits/s speed=0.0115x elapsed=0:03:06.45    \nx265 [warning]: poc:134, VBV underflow (-35133 bits)\nframe=  132 fps=0.7 q=51.0 size=     512KiB time=00:00:02.16 bitrate=1936.0kbits/s speed=0.0116x elapsed=0:03:07.01    \nframe=  132 fps=0.7 q=51.0 size=     512KiB time=00:00:02.16 bitrate=1936.0kbits/s speed=0.0116x elapsed=0:03:07.57    \nx265 [warning]: poc:132, VBV underflow (-29413 bits)\nframe=  133 fps=0.7 q=51.0 size=     512KiB time=00:00:02.18 bitrate=1921.2kbits/s speed=0.0116x elapsed=0:03:08.17    \nframe=  133 fps=0.7 q=51.0 size=     512KiB time=00:00:02.18 bitrate=1921.2kbits/s speed=0.0116x elapsed=0:03:08.70    \nx265 [warning]: poc:131, VBV underflow (-9981 bits)\nframe=  134 fps=0.7 q=51.0 size=     512KiB time=00:00:02.20 bitrate=1906.7kbits/s speed=0.0116x elapsed=0:03:09.24    \nframe=  134 fps=0.7 q=51.0 size=     512KiB time=00:00:02.20 bitrate=1906.7kbits/s speed=0.0116x elapsed=0:03:09.83    \nframe=  134 fps=0.7 q=51.0 size=     512KiB time=00:00:02.20 bitrate=1906.7kbits/s speed=0.0116x elapsed=0:03:10.36    \nx265 [warning]: poc:133, VBV underflow (-9853 bits)\nframe=  135 fps=0.7 q=51.0 size=     512KiB time=00:00:02.21 bitrate=1892.3kbits/s speed=0.0116x elapsed=0:03:10.89    \nframe=  135 fps=0.7 q=51.0 size=     512KiB time=00:00:02.21 bitrate=1892.3kbits/s speed=0.0116x elapsed=0:03:11.50    \nx265 [warning]: poc:138, VBV underflow (-37933 bits)\nframe=  136 fps=0.7 q=51.0 size=     512KiB time=00:00:02.23 bitrate=1878.2kbits/s speed=0.0116x elapsed=0:03:12.01    \nx265 [warning]: poc:136, VBV underflow (-27397 bits)\nframe=  137 fps=0.7 q=51.0 size=     512KiB time=00:00:02.25 bitrate=1864.3kbits/s speed=0.0117x elapsed=0:03:12.54    \nframe=  137 fps=0.7 q=51.0 size=     512KiB time=00:00:02.25 bitrate=1864.3kbits/s speed=0.0117x elapsed=0:03:13.07    \nx265 [warning]: poc:135, VBV underflow (-9589 bits)\nx265 [warning]: poc:137, VBV underflow (-10101 bits)\nframe=  139 fps=0.7 q=51.0 size=     512KiB time=00:00:02.28 bitrate=1837.1kbits/s speed=0.0118x elapsed=0:03:13.60    \nframe=  139 fps=0.7 q=51.0 size=     512KiB time=00:00:02.28 bitrate=1837.1kbits/s speed=0.0118x elapsed=0:03:14.13    \nframe=  139 fps=0.7 q=51.0 size=     512KiB time=00:00:02.28 bitrate=1837.1kbits/s speed=0.0117x elapsed=0:03:14.65    \nframe=  139 fps=0.7 q=51.0 size=     512KiB time=00:00:02.28 bitrate=1837.1kbits/s speed=0.0117x elapsed=0:03:15.17    \nx265 [warning]: poc:143, VBV underflow (-39085 bits)\nframe=  140 fps=0.7 q=51.0 size=     512KiB time=00:00:02.30 bitrate=1823.8kbits/s speed=0.0118x elapsed=0:03:15.72    \nx265 [warning]: poc:141, VBV underflow (-30437 bits)\nframe=  141 fps=0.7 q=51.0 size=     512KiB time=00:00:02.31 bitrate=1810.6kbits/s speed=0.0118x elapsed=0:03:16.26    \nframe=  141 fps=0.7 q=51.0 size=     512KiB time=00:00:02.31 bitrate=1810.6kbits/s speed=0.0118x elapsed=0:03:16.83    \nframe=  141 fps=0.7 q=51.0 size=     512KiB time=00:00:02.31 bitrate=1810.6kbits/s speed=0.0117x elapsed=0:03:17.37    \nx265 [warning]: poc:139, VBV underflow (-18989 bits)\nframe=  142 fps=0.7 q=51.0 size=     512KiB time=00:00:02.33 bitrate=1797.7kbits/s speed=0.0118x elapsed=0:03:17.90    \nframe=  142 fps=0.7 q=51.0 size=     512KiB time=00:00:02.33 bitrate=1797.7kbits/s speed=0.0118x elapsed=0:03:18.46    \nx265 [warning]: poc:140, VBV underflow (-18757 bits)\nframe=  143 fps=0.7 q=51.0 size=     512KiB time=00:00:02.35 bitrate=1785.0kbits/s speed=0.0118x elapsed=0:03:18.99    \nframe=  143 fps=0.7 q=51.0 size=     512KiB time=00:00:02.35 bitrate=1785.0kbits/s speed=0.0118x elapsed=0:03:19.52    \nx265 [warning]: poc:142, VBV underflow (-10037 bits)\nframe=  144 fps=0.7 q=51.0 size=     512KiB time=00:00:02.36 bitrate=1772.4kbits/s speed=0.0118x elapsed=0:03:20.07    \nx265 [warning]: poc:147, VBV underflow (-37837 bits)\nframe=  145 fps=0.7 q=51.0 size=     512KiB time=00:00:02.38 bitrate=1760.0kbits/s speed=0.0119x elapsed=0:03:20.60    \nframe=  145 fps=0.7 q=51.0 size=     512KiB time=00:00:02.38 bitrate=1760.0kbits/s speed=0.0118x elapsed=0:03:21.14    \nframe=  145 fps=0.7 q=51.0 size=     512KiB time=00:00:02.38 bitrate=1760.0kbits/s speed=0.0118x elapsed=0:03:21.65    \nframe=  145 fps=0.7 q=51.0 size=     512KiB time=00:00:02.38 bitrate=1760.0kbits/s speed=0.0118x elapsed=0:03:22.17    \nx265 [warning]: poc:145, VBV underflow (-27741 bits)\nframe=  146 fps=0.7 q=51.0 size=     512KiB time=00:00:02.40 bitrate=1747.8kbits/s speed=0.0118x elapsed=0:03:22.72    \nframe=  146 fps=0.7 q=51.0 size=     512KiB time=00:00:02.40 bitrate=1747.8kbits/s speed=0.0118x elapsed=0:03:23.24    \nx265 [warning]: poc:144, VBV underflow (-9877 bits)\nframe=  147 fps=0.7 q=51.0 size=     512KiB time=00:00:02.41 bitrate=1735.7kbits/s speed=0.0119x elapsed=0:03:23.76    \nx265 [warning]: poc:146, VBV underflow (-9293 bits)\nframe=  148 fps=0.7 q=51.0 size=     512KiB time=00:00:02.43 bitrate=1723.8kbits/s speed=0.0119x elapsed=0:03:24.28    \nx265 [warning]: poc:151, VBV underflow (-37253 bits)\nframe=  149 fps=0.7 q=51.0 size=     512KiB time=00:00:02.45 bitrate=1712.1kbits/s speed=0.012x elapsed=0:03:24.80    \nframe=  149 fps=0.7 q=51.0 size=     512KiB time=00:00:02.45 bitrate=1712.1kbits/s speed=0.0119x elapsed=0:03:25.33    \nx265 [warning]: poc:149, VBV underflow (-28189 bits)\nframe=  150 fps=0.7 q=51.0 size=     512KiB time=00:00:02.46 bitrate=1700.5kbits/s speed=0.012x elapsed=0:03:25.86    \nx265 [warning]: poc:148, VBV underflow (-9141 bits)\nframe=  151 fps=0.7 q=51.0 size=     512KiB time=00:00:02.48 bitrate=1689.1kbits/s speed=0.012x elapsed=0:03:26.40    \nx265 [warning]: poc:150, VBV underflow (-9725 bits)\nframe=  152 fps=0.7 q=51.0 size=     512KiB time=00:00:02.50 bitrate=1677.9kbits/s speed=0.0121x elapsed=0:03:26.92    \nx265 [warning]: poc:155, VBV underflow (-37229 bits)\nframe=  153 fps=0.7 q=51.0 size=     512KiB time=00:00:02.51 bitrate=1666.8kbits/s speed=0.0121x elapsed=0:03:27.42    \nx265 [warning]: poc:153, VBV underflow (-28813 bits)\nframe=  154 fps=0.7 q=51.0 size=     512KiB time=00:00:02.53 bitrate=1655.8kbits/s speed=0.0122x elapsed=0:03:27.94    \nframe=  154 fps=0.7 q=51.0 size=     512KiB time=00:00:02.53 bitrate=1655.8kbits/s speed=0.0122x elapsed=0:03:28.47    \nx265 [warning]: poc:152, VBV underflow (-10005 bits)\nframe=  155 fps=0.7 q=51.0 size=     512KiB time=00:00:02.55 bitrate=1645.0kbits/s speed=0.0122x elapsed=0:03:29.03    \nx265 [warning]: poc:154, VBV underflow (-8501 bits)\nframe=  156 fps=0.7 q=51.0 size=     512KiB time=00:00:02.56 bitrate=1634.3kbits/s speed=0.0122x elapsed=0:03:29.55    \nx265 [warning]: poc:159, VBV underflow (-37301 bits)\nframe=  157 fps=0.7 q=51.0 size=     512KiB time=00:00:02.58 bitrate=1623.7kbits/s speed=0.0123x elapsed=0:03:30.07    \nx265 [warning]: poc:157, VBV underflow (-26573 bits)\nframe=  158 fps=0.8 q=51.0 size=     512KiB time=00:00:02.60 bitrate=1613.3kbits/s speed=0.0123x elapsed=0:03:30.62    \nframe=  158 fps=0.7 q=51.0 size=     512KiB time=00:00:02.60 bitrate=1613.3kbits/s speed=0.0123x elapsed=0:03:31.13    \nframe=  158 fps=0.7 q=51.0 size=     512KiB time=00:00:02.60 bitrate=1613.3kbits/s speed=0.0123x elapsed=0:03:31.66    \nx265 [warning]: poc:156, VBV underflow (-8773 bits)\nframe=  159 fps=0.7 q=51.0 size=     512KiB time=00:00:02.61 bitrate=1603.1kbits/s speed=0.0123x elapsed=0:03:32.17    \nx265 [warning]: poc:158, VBV underflow (-8749 bits)\nframe=  160 fps=0.8 q=51.0 size=     512KiB time=00:00:02.63 bitrate=1592.9kbits/s speed=0.0124x elapsed=0:03:32.69    \nframe=  160 fps=0.8 q=51.0 size=     512KiB time=00:00:02.63 bitrate=1592.9kbits/s speed=0.0124x elapsed=0:03:33.21    \nframe=  160 fps=0.7 q=51.0 size=     512KiB time=00:00:02.63 bitrate=1592.9kbits/s speed=0.0123x elapsed=0:03:33.73    \nx265 [warning]: poc:163, VBV underflow (-36445 bits)\nframe=  161 fps=0.8 q=51.0 size=     512KiB time=00:00:02.65 bitrate=1582.9kbits/s speed=0.0124x elapsed=0:03:34.26    \nframe=  161 fps=0.7 q=51.0 size=     512KiB time=00:00:02.65 bitrate=1582.9kbits/s speed=0.0123x elapsed=0:03:34.79    \nframe=  161 fps=0.7 q=51.0 size=     512KiB time=00:00:02.65 bitrate=1582.9kbits/s speed=0.0123x elapsed=0:03:35.33    \nframe=  161 fps=0.7 q=51.0 size=     512KiB time=00:00:02.65 bitrate=1582.9kbits/s speed=0.0123x elapsed=0:03:35.85    \nframe=  161 fps=0.7 q=51.0 size=     512KiB time=00:00:02.65 bitrate=1582.9kbits/s speed=0.0122x elapsed=0:03:36.36    \nx265 [warning]: poc:161, VBV underflow (-26613 bits)\nframe=  162 fps=0.7 q=51.0 size=     768KiB time=00:00:02.66 bitrate=2359.4kbits/s speed=0.0123x elapsed=0:03:36.90    \nx265 [warning]: poc:160, VBV underflow (-8061 bits)\nframe=  163 fps=0.7 q=51.0 size=     768KiB time=00:00:02.68 bitrate=2344.8kbits/s speed=0.0123x elapsed=0:03:37.42    \nx265 [warning]: poc:162, VBV underflow (-8013 bits)\nframe=  164 fps=0.8 q=51.0 size=     768KiB time=00:00:02.70 bitrate=2330.3kbits/s speed=0.0124x elapsed=0:03:37.94    \nframe=  164 fps=0.8 q=51.0 size=     768KiB time=00:00:02.70 bitrate=2330.3kbits/s speed=0.0124x elapsed=0:03:38.46    \nx265 [warning]: poc:167, VBV underflow (-37069 bits)\nframe=  165 fps=0.8 q=51.0 size=     768KiB time=00:00:02.71 bitrate=2316.0kbits/s speed=0.0124x elapsed=0:03:38.99    \nx265 [warning]: poc:165, VBV underflow (-26941 bits)\nframe=  166 fps=0.8 q=51.0 size=     768KiB time=00:00:02.73 bitrate=2301.9kbits/s speed=0.0125x elapsed=0:03:39.53    \nframe=  166 fps=0.8 q=51.0 size=     768KiB time=00:00:02.73 bitrate=2301.9kbits/s speed=0.0124x elapsed=0:03:40.08    \nframe=  166 fps=0.8 q=51.0 size=     768KiB time=00:00:02.73 bitrate=2301.9kbits/s speed=0.0124x elapsed=0:03:40.62    \nframe=  166 fps=0.8 q=51.0 size=     768KiB time=00:00:02.73 bitrate=2301.9kbits/s speed=0.0124x elapsed=0:03:41.15    \nframe=  166 fps=0.7 q=51.0 size=     768KiB time=00:00:02.73 bitrate=2301.9kbits/s speed=0.0123x elapsed=0:03:41.66    \nx265 [warning]: poc:164, VBV underflow (-9541 bits)\nframe=  167 fps=0.8 q=51.0 size=     768KiB time=00:00:02.75 bitrate=2287.9kbits/s speed=0.0124x elapsed=0:03:42.18    \nx265 [warning]: poc:166, VBV underflow (-9645 bits)\nframe=  168 fps=0.8 q=51.0 size=     768KiB time=00:00:02.76 bitrate=2274.1kbits/s speed=0.0124x elapsed=0:03:42.72    \nframe=  168 fps=0.8 q=51.0 size=     768KiB time=00:00:02.76 bitrate=2274.1kbits/s speed=0.0124x elapsed=0:03:43.25    \nframe=  168 fps=0.8 q=51.0 size=     768KiB time=00:00:02.76 bitrate=2274.1kbits/s speed=0.0124x elapsed=0:03:43.77    \nx265 [warning]: poc:171, VBV underflow (-35221 bits)\nframe=  169 fps=0.8 q=51.0 size=     768KiB time=00:00:02.78 bitrate=2260.5kbits/s speed=0.0124x elapsed=0:03:44.30    \nframe=  169 fps=0.8 q=51.0 size=     768KiB time=00:00:02.78 bitrate=2260.5kbits/s speed=0.0124x elapsed=0:03:44.83    \nx265 [warning]: poc:169, VBV underflow (-26773 bits)\nframe=  170 fps=0.8 q=51.0 size=     768KiB time=00:00:02.80 bitrate=2247.1kbits/s speed=0.0124x elapsed=0:03:45.36    \nx265 [warning]: poc:168, VBV underflow (-7757 bits)\nframe=  171 fps=0.8 q=51.0 size=     768KiB time=00:00:02.81 bitrate=2233.8kbits/s speed=0.0125x elapsed=0:03:45.89    \nframe=  171 fps=0.8 q=51.0 size=     768KiB time=00:00:02.81 bitrate=2233.8kbits/s speed=0.0124x elapsed=0:03:46.43    \nx265 [warning]: poc:170, VBV underflow (-6741 bits)\nframe=  172 fps=0.8 q=51.0 size=     768KiB time=00:00:02.83 bitrate=2220.6kbits/s speed=0.0125x elapsed=0:03:46.98    \nframe=  172 fps=0.8 q=51.0 size=     768KiB time=00:00:02.83 bitrate=2220.6kbits/s speed=0.0125x elapsed=0:03:47.51    \nx265 [warning]: poc:175, VBV underflow (-35061 bits)\nframe=  173 fps=0.8 q=51.0 size=     768KiB time=00:00:02.85 bitrate=2207.7kbits/s speed=0.0125x elapsed=0:03:48.04    \nframe=  173 fps=0.8 q=51.0 size=     768KiB time=00:00:02.85 bitrate=2207.7kbits/s speed=0.0125x elapsed=0:03:48.58    \nx265 [warning]: poc:173, VBV underflow (-25789 bits)\nframe=  174 fps=0.8 q=51.0 size=     768KiB time=00:00:02.86 bitrate=2194.8kbits/s speed=0.0125x elapsed=0:03:49.12    \nframe=  174 fps=0.8 q=51.0 size=     768KiB time=00:00:02.86 bitrate=2194.8kbits/s speed=0.0125x elapsed=0:03:49.66    \nx265 [warning]: poc:172, VBV underflow (-7853 bits)\nframe=  175 fps=0.8 q=51.0 size=     768KiB time=00:00:02.88 bitrate=2182.1kbits/s speed=0.0125x elapsed=0:03:50.18    \nx265 [warning]: poc:174, VBV underflow (-7349 bits)\nframe=  176 fps=0.8 q=51.0 size=     768KiB time=00:00:02.90 bitrate=2169.6kbits/s speed=0.0126x elapsed=0:03:50.69    \nframe=  176 fps=0.8 q=51.0 size=     768KiB time=00:00:02.90 bitrate=2169.6kbits/s speed=0.0125x elapsed=0:03:51.21    \nframe=  176 fps=0.8 q=51.0 size=     768KiB time=00:00:02.90 bitrate=2169.6kbits/s speed=0.0125x elapsed=0:03:51.76    \nx265 [warning]: poc:180, VBV underflow (-35781 bits)\nframe=  177 fps=0.8 q=51.0 size=     768KiB time=00:00:02.91 bitrate=2157.2kbits/s speed=0.0126x elapsed=0:03:52.28    \nx265 [warning]: poc:178, VBV underflow (-27621 bits)\nframe=  178 fps=0.8 q=51.0 size=     768KiB time=00:00:02.93 bitrate=2144.9kbits/s speed=0.0126x elapsed=0:03:52.86    \nframe=  178 fps=0.8 q=51.0 size=     768KiB time=00:00:02.93 bitrate=2144.9kbits/s speed=0.0126x elapsed=0:03:53.36    \nframe=  178 fps=0.8 q=51.0 size=     768KiB time=00:00:02.93 bitrate=2144.9kbits/s speed=0.0125x elapsed=0:03:53.88    \nx265 [warning]: poc:176, VBV underflow (-14997 bits)\nframe=  179 fps=0.8 q=51.0 size=     768KiB time=00:00:02.95 bitrate=2132.8kbits/s speed=0.0126x elapsed=0:03:54.42    \nx265 [warning]: poc:177, VBV underflow (-15669 bits)\nframe=  180 fps=0.8 q=51.0 size=     768KiB time=00:00:02.96 bitrate=2120.8kbits/s speed=0.0126x elapsed=0:03:54.94    \nframe=  180 fps=0.8 q=51.0 size=     768KiB time=00:00:02.96 bitrate=2120.8kbits/s speed=0.0126x elapsed=0:03:55.47    \nx265 [warning]: poc:179, VBV underflow (-6877 bits)\nframe=  181 fps=0.8 q=51.0 size=     768KiB time=00:00:02.98 bitrate=2109.0kbits/s speed=0.0126x elapsed=0:03:56.00    \nframe=  181 fps=0.8 q=51.0 size=     768KiB time=00:00:02.98 bitrate=2109.0kbits/s speed=0.0126x elapsed=0:03:56.52    \nframe=  181 fps=0.8 q=51.0 size=     768KiB time=00:00:02.98 bitrate=2109.0kbits/s speed=0.0126x elapsed=0:03:57.04    \nx265 [warning]: poc:184, VBV underflow (-33757 bits)\nframe=  182 fps=0.8 q=51.0 size=     768KiB time=00:00:03.00 bitrate=2097.3kbits/s speed=0.0126x elapsed=0:03:57.57    \nframe=  182 fps=0.8 q=51.0 size=     768KiB time=00:00:03.00 bitrate=2097.3kbits/s speed=0.0126x elapsed=0:03:58.10    \nx265 [warning]: poc:182, VBV underflow (-24573 bits)\nframe=  183 fps=0.8 q=51.0 size=     768KiB time=00:00:03.01 bitrate=2085.7kbits/s speed=0.0126x elapsed=0:03:58.62    \nframe=  183 fps=0.8 q=51.0 size=     768KiB time=00:00:03.01 bitrate=2085.7kbits/s speed=0.0126x elapsed=0:03:59.15    \nx265 [warning]: poc:181, VBV underflow (-8237 bits)\nframe=  184 fps=0.8 q=51.0 size=     768KiB time=00:00:03.03 bitrate=2074.2kbits/s speed=0.0127x elapsed=0:03:59.69    \nframe=  184 fps=0.8 q=51.0 size=     768KiB time=00:00:03.03 bitrate=2074.2kbits/s speed=0.0126x elapsed=0:04:00.22    \nframe=  184 fps=0.8 q=51.0 size=     768KiB time=00:00:03.03 bitrate=2074.2kbits/s speed=0.0126x elapsed=0:04:00.76    \nx265 [warning]: poc:183, VBV underflow (-5709 bits)\nframe=  185 fps=0.8 q=51.0 size=     768KiB time=00:00:03.05 bitrate=2062.9kbits/s speed=0.0126x elapsed=0:04:01.30    \nx265 [warning]: poc:188, VBV underflow (-32941 bits)\nframe=  186 fps=0.8 q=51.0 size=     768KiB time=00:00:03.06 bitrate=2051.7kbits/s speed=0.0127x elapsed=0:04:01.84    \nframe=  186 fps=0.8 q=51.0 size=     768KiB time=00:00:03.06 bitrate=2051.7kbits/s speed=0.0127x elapsed=0:04:02.37    \nframe=  186 fps=0.8 q=51.0 size=     768KiB time=00:00:03.06 bitrate=2051.7kbits/s speed=0.0126x elapsed=0:04:02.91    \nframe=  186 fps=0.8 q=51.0 size=     768KiB time=00:00:03.06 bitrate=2051.7kbits/s speed=0.0126x elapsed=0:04:03.44    \nframe=  186 fps=0.8 q=51.0 size=     768KiB time=00:00:03.06 bitrate=2051.7kbits/s speed=0.0126x elapsed=0:04:03.97    \nx265 [warning]: poc:186, VBV underflow (-23901 bits)\nframe=  187 fps=0.8 q=51.0 size=     768KiB time=00:00:03.08 bitrate=2040.6kbits/s speed=0.0126x elapsed=0:04:04.50    \nframe=  187 fps=0.8 q=51.0 size=     768KiB time=00:00:03.08 bitrate=2040.6kbits/s speed=0.0126x elapsed=0:04:05.03    \nframe=  187 fps=0.8 q=51.0 size=     768KiB time=00:00:03.08 bitrate=2040.6kbits/s speed=0.0126x elapsed=0:04:05.57    \nx265 [warning]: poc:185, VBV underflow (-5493 bits)\nframe=  188 fps=0.8 q=51.0 size=     768KiB time=00:00:03.10 bitrate=2029.6kbits/s speed=0.0126x elapsed=0:04:06.09    \nx265 [warning]: poc:187, VBV underflow (-6621 bits)\nframe=  189 fps=0.8 q=51.0 size=     768KiB time=00:00:03.11 bitrate=2018.8kbits/s speed=0.0126x elapsed=0:04:06.61    \nframe=  189 fps=0.8 q=51.0 size=     768KiB time=00:00:03.11 bitrate=2018.8kbits/s speed=0.0126x elapsed=0:04:07.14    \nframe=  189 fps=0.8 q=51.0 size=     768KiB time=00:00:03.11 bitrate=2018.8kbits/s speed=0.0126x elapsed=0:04:07.68    \nx265 [warning]: poc:192, VBV underflow (-34045 bits)\nframe=  190 fps=0.8 q=51.0 size=     768KiB time=00:00:03.13 bitrate=2008.0kbits/s speed=0.0126x elapsed=0:04:08.22    \nframe=  190 fps=0.8 q=51.0 size=     768KiB time=00:00:03.13 bitrate=2008.0kbits/s speed=0.0126x elapsed=0:04:08.74    \nx265 [warning]: poc:190, VBV underflow (-23909 bits)\nframe=  191 fps=0.8 q=51.0 size=     768KiB time=00:00:03.15 bitrate=1997.4kbits/s speed=0.0126x elapsed=0:04:09.28    \nframe=  191 fps=0.8 q=51.0 size=     768KiB time=00:00:03.15 bitrate=1997.4kbits/s speed=0.0126x elapsed=0:04:09.84    \nframe=  191 fps=0.8 q=51.0 size=     768KiB time=00:00:03.15 bitrate=1997.4kbits/s speed=0.0126x elapsed=0:04:10.38    \nframe=  191 fps=0.8 q=51.0 size=     768KiB time=00:00:03.15 bitrate=1997.4kbits/s speed=0.0126x elapsed=0:04:10.90    \nx265 [warning]: poc:189, VBV underflow (-6421 bits)\nframe=  192 fps=0.8 q=51.0 size=     768KiB time=00:00:03.16 bitrate=1986.9kbits/s speed=0.0126x elapsed=0:04:11.41    \nframe=  192 fps=0.8 q=51.0 size=     768KiB time=00:00:03.16 bitrate=1986.9kbits/s speed=0.0126x elapsed=0:04:11.93    \nx265 [warning]: poc:191, VBV underflow (-5421 bits)\nframe=  193 fps=0.8 q=51.0 size=     768KiB time=00:00:03.18 bitrate=1976.5kbits/s speed=0.0126x elapsed=0:04:12.43    \nx265 [warning]: poc:196, VBV underflow (-31149 bits)\nframe=  194 fps=0.8 q=51.0 size=     768KiB time=00:00:03.20 bitrate=1966.2kbits/s speed=0.0126x elapsed=0:04:12.96    \nx265 [warning]: poc:194, VBV underflow (-22029 bits)\nframe=  195 fps=0.8 q=51.0 size=     768KiB time=00:00:03.21 bitrate=1956.0kbits/s speed=0.0127x elapsed=0:04:13.51    \nframe=  195 fps=0.8 q=51.0 size=     768KiB time=00:00:03.21 bitrate=1956.0kbits/s speed=0.0127x elapsed=0:04:14.04    \nframe=  195 fps=0.8 q=51.0 size=     768KiB time=00:00:03.21 bitrate=1956.0kbits/s speed=0.0126x elapsed=0:04:14.57    \nx265 [warning]: poc:193, VBV underflow (-4725 bits)\nframe=  196 fps=0.8 q=51.0 size=     768KiB time=00:00:03.23 bitrate=1945.9kbits/s speed=0.0127x elapsed=0:04:15.12    \nx265 [warning]: poc:195, VBV underflow (-4909 bits)\nframe=  197 fps=0.8 q=51.0 size=     768KiB time=00:00:03.25 bitrate=1935.9kbits/s speed=0.0127x elapsed=0:04:15.66    \nframe=  197 fps=0.8 q=51.0 size=     768KiB time=00:00:03.25 bitrate=1935.9kbits/s speed=0.0127x elapsed=0:04:16.20    \nframe=  197 fps=0.8 q=51.0 size=     768KiB time=00:00:03.25 bitrate=1935.9kbits/s speed=0.0127x elapsed=0:04:16.75    \nframe=  197 fps=0.8 q=51.0 size=     768KiB time=00:00:03.25 bitrate=1935.9kbits/s speed=0.0126x elapsed=0:04:17.28    \nx265 [warning]: poc:200, VBV underflow (-31621 bits)\nframe=  198 fps=0.8 q=51.0 size=     768KiB time=00:00:03.26 bitrate=1926.1kbits/s speed=0.0127x elapsed=0:04:17.82    \nx265 [warning]: poc:198, VBV underflow (-20269 bits)\nframe=  199 fps=0.8 q=51.0 size=     768KiB time=00:00:03.28 bitrate=1916.3kbits/s speed=0.0127x elapsed=0:04:18.34    \nframe=  199 fps=0.8 q=51.0 size=     768KiB time=00:00:03.28 bitrate=1916.3kbits/s speed=0.0127x elapsed=0:04:18.86    \nx265 [warning]: poc:197, VBV underflow (-4797 bits)\nframe=  200 fps=0.8 q=51.0 size=     768KiB time=00:00:03.30 bitrate=1906.6kbits/s speed=0.0127x elapsed=0:04:19.39    \nframe=  200 fps=0.8 q=51.0 size=     768KiB time=00:00:03.30 bitrate=1906.6kbits/s speed=0.0127x elapsed=0:04:19.92    \nx265 [warning]: poc:199, VBV underflow (-4757 bits)\nframe=  201 fps=0.8 q=51.0 size=     768KiB time=00:00:03.31 bitrate=1897.0kbits/s speed=0.0127x elapsed=0:04:20.45    \nframe=  201 fps=0.8 q=51.0 size=     768KiB time=00:00:03.31 bitrate=1897.0kbits/s speed=0.0127x elapsed=0:04:20.97    \nx265 [warning]: poc:204, VBV underflow (-30901 bits)\nframe=  202 fps=0.8 q=51.0 size=     768KiB time=00:00:03.33 bitrate=1887.5kbits/s speed=0.0127x elapsed=0:04:21.49    \nx265 [warning]: poc:202, VBV underflow (-21493 bits)\nframe=  203 fps=0.8 q=51.0 size=     768KiB time=00:00:03.35 bitrate=1878.2kbits/s speed=0.0128x elapsed=0:04:22.02    \nframe=  203 fps=0.8 q=51.0 size=     768KiB time=00:00:03.35 bitrate=1878.2kbits/s speed=0.0128x elapsed=0:04:22.55    \nx265 [warning]: poc:201, VBV underflow (-4077 bits)\nframe=  204 fps=0.8 q=51.0 size=     768KiB time=00:00:03.36 bitrate=1868.9kbits/s speed=0.0128x elapsed=0:04:23.07    \nx265 [warning]: poc:203, VBV underflow (-4437 bits)\nframe=  205 fps=0.8 q=51.0 size=     768KiB time=00:00:03.38 bitrate=1859.6kbits/s speed=0.0128x elapsed=0:04:23.60    \nx265 [warning]: poc:208, VBV underflow (-29477 bits)\nx265 [warning]: poc:206, VBV underflow (-20941 bits)\nframe=  207 fps=0.8 q=51.0 size=     768KiB time=00:00:03.41 bitrate=1841.5kbits/s speed=0.0129x elapsed=0:04:24.14    \nframe=  207 fps=0.8 q=51.0 size=     768KiB time=00:00:03.41 bitrate=1841.5kbits/s speed=0.0129x elapsed=0:04:24.66    \nx265 [warning]: poc:205, VBV underflow (-3669 bits)\nframe=  208 fps=0.8 q=51.0 size=     768KiB time=00:00:03.43 bitrate=1832.6kbits/s speed=0.0129x elapsed=0:04:25.24    \nframe=  208 fps=0.8 q=51.0 size=     768KiB time=00:00:03.43 bitrate=1832.6kbits/s speed=0.0129x elapsed=0:04:25.83    \nframe=  208 fps=0.8 q=51.0 size=     768KiB time=00:00:03.43 bitrate=1832.6kbits/s speed=0.0129x elapsed=0:04:26.36    \nframe=  208 fps=0.8 q=51.0 size=     768KiB time=00:00:03.43 bitrate=1832.6kbits/s speed=0.0129x elapsed=0:04:26.89    \nx265 [warning]: poc:207, VBV underflow (-4669 bits)\nframe=  209 fps=0.8 q=51.0 size=     768KiB time=00:00:03.45 bitrate=1823.7kbits/s speed=0.0129x elapsed=0:04:27.47    \nx265 [warning]: poc:212, VBV underflow (-30789 bits)\nframe=  210 fps=0.8 q=51.0 size=     768KiB time=00:00:03.46 bitrate=1814.9kbits/s speed=0.0129x elapsed=0:04:27.98    \nframe=  210 fps=0.8 q=51.0 size=     768KiB time=00:00:03.46 bitrate=1814.9kbits/s speed=0.0129x elapsed=0:04:28.52    \nframe=  210 fps=0.8 q=51.0 size=     768KiB time=00:00:03.46 bitrate=1814.9kbits/s speed=0.0129x elapsed=0:04:29.06    \nframe=  210 fps=0.8 q=51.0 size=     768KiB time=00:00:03.46 bitrate=1814.9kbits/s speed=0.0129x elapsed=0:04:29.61    \nframe=  210 fps=0.8 q=51.0 size=     768KiB time=00:00:03.46 bitrate=1814.9kbits/s speed=0.0128x elapsed=0:04:30.13    \nx265 [warning]: poc:210, VBV underflow (-19477 bits)\nframe=  211 fps=0.8 q=51.0 size=     768KiB time=00:00:03.48 bitrate=1806.3kbits/s speed=0.0129x elapsed=0:04:30.66    \nframe=  211 fps=0.8 q=51.0 size=     768KiB time=00:00:03.48 bitrate=1806.3kbits/s speed=0.0128x elapsed=0:04:31.23    \nframe=  211 fps=0.8 q=51.0 size=     768KiB time=00:00:03.48 bitrate=1806.3kbits/s speed=0.0128x elapsed=0:04:31.77    \nx265 [warning]: poc:209, VBV underflow (-2773 bits)\nx265 [warning]: poc:211, VBV underflow (-3493 bits)\nframe=  213 fps=0.8 q=51.0 size=     768KiB time=00:00:03.51 bitrate=1789.1kbits/s speed=0.0129x elapsed=0:04:32.29    \nx265 [warning]: poc:216, VBV underflow (-30621 bits)\nframe=  214 fps=0.8 q=51.0 size=     768KiB time=00:00:03.53 bitrate=1780.7kbits/s speed=0.013x elapsed=0:04:32.82    \nframe=  214 fps=0.8 q=51.0 size=     768KiB time=00:00:03.53 bitrate=1780.7kbits/s speed=0.0129x elapsed=0:04:33.34    \nx265 [warning]: poc:214, VBV underflow (-20053 bits)\nframe=  215 fps=0.8 q=51.0 size=     768KiB time=00:00:03.55 bitrate=1772.3kbits/s speed=0.013x elapsed=0:04:33.93    \nframe=  215 fps=0.8 q=51.0 size=     768KiB time=00:00:03.55 bitrate=1772.3kbits/s speed=0.0129x elapsed=0:04:34.45    \nx265 [warning]: poc:213, VBV underflow (-2933 bits)\nframe=  216 fps=0.8 q=51.0 size=     768KiB time=00:00:03.56 bitrate=1764.1kbits/s speed=0.013x elapsed=0:04:34.97    \nframe=  216 fps=0.8 q=51.0 size=     768KiB time=00:00:03.56 bitrate=1764.1kbits/s speed=0.0129x elapsed=0:04:35.50    \nx265 [warning]: poc:215, VBV underflow (-3317 bits)\nframe=  217 fps=0.8 q=51.0 size=     768KiB time=00:00:03.58 bitrate=1755.9kbits/s speed=0.013x elapsed=0:04:36.04    \nx265 [warning]: poc:220, VBV underflow (-27549 bits)\nframe=  218 fps=0.8 q=51.0 size=     768KiB time=00:00:03.60 bitrate=1747.7kbits/s speed=0.013x elapsed=0:04:36.56    \nframe=  218 fps=0.8 q=51.0 size=     768KiB time=00:00:03.60 bitrate=1747.7kbits/s speed=0.013x elapsed=0:04:37.08    \nframe=  218 fps=0.8 q=51.0 size=     768KiB time=00:00:03.60 bitrate=1747.7kbits/s speed=0.013x elapsed=0:04:37.64    \nx265 [warning]: poc:218, VBV underflow (-16685 bits)\nframe=  219 fps=0.8 q=51.0 size=     768KiB time=00:00:03.61 bitrate=1739.7kbits/s speed=0.013x elapsed=0:04:38.19    \nframe=  219 fps=0.8 q=51.0 size=     768KiB time=00:00:03.61 bitrate=1739.7kbits/s speed=0.013x elapsed=0:04:38.73    \nx265 [warning]: poc:217, VBV underflow (-2165 bits)\nframe=  220 fps=0.8 q=51.0 size=     768KiB time=00:00:03.63 bitrate=1731.7kbits/s speed=0.013x elapsed=0:04:39.30    \nx265 [warning]: poc:219, VBV underflow (-1261 bits)\nframe=  221 fps=0.8 q=51.0 size=     768KiB time=00:00:03.65 bitrate=1723.8kbits/s speed=0.013x elapsed=0:04:39.82    \nx265 [warning]: poc:224, VBV underflow (-28085 bits)\nframe=  222 fps=0.8 q=51.0 size=     768KiB time=00:00:03.66 bitrate=1715.9kbits/s speed=0.0131x elapsed=0:04:40.34    \nframe=  222 fps=0.8 q=51.0 size=     768KiB time=00:00:03.66 bitrate=1715.9kbits/s speed=0.0131x elapsed=0:04:40.85    \nx265 [warning]: poc:222, VBV underflow (-17341 bits)\nframe=  223 fps=0.8 q=51.0 size=     768KiB time=00:00:03.68 bitrate=1708.2kbits/s speed=0.0131x elapsed=0:04:41.41    \nframe=  223 fps=0.8 q=51.0 size=     768KiB time=00:00:03.68 bitrate=1708.2kbits/s speed=0.0131x elapsed=0:04:41.94    \nx265 [warning]: poc:221, VBV underflow (-1597 bits)\nframe=  224 fps=0.8 q=51.0 size=    1024KiB time=00:00:03.70 bitrate=2267.3kbits/s speed=0.0131x elapsed=0:04:42.48    \nframe=  224 fps=0.8 q=51.0 size=    1024KiB time=00:00:03.70 bitrate=2267.3kbits/s speed=0.0131x elapsed=0:04:43.01    \nframe=  224 fps=0.8 q=51.0 size=    1024KiB time=00:00:03.70 bitrate=2267.3kbits/s speed=0.013x elapsed=0:04:43.55    \nx265 [warning]: poc:223, VBV underflow (-1389 bits)\nx265 [warning]: poc:228, VBV underflow (-27221 bits)\nframe=  226 fps=0.8 q=51.0 size=    1024KiB time=00:00:03.73 bitrate=2247.0kbits/s speed=0.0131x elapsed=0:04:44.10    \nframe=  226 fps=0.8 q=51.0 size=    1024KiB time=00:00:03.73 bitrate=2247.0kbits/s speed=0.0131x elapsed=0:04:44.61    \nx265 [warning]: poc:226, VBV underflow (-18541 bits)\nframe=  227 fps=0.8 q=51.0 size=    1024KiB time=00:00:03.75 bitrate=2237.1kbits/s speed=0.0132x elapsed=0:04:45.15    \nframe=  227 fps=0.8 q=51.0 size=    1024KiB time=00:00:03.75 bitrate=2237.1kbits/s speed=0.0131x elapsed=0:04:45.72    \nframe=  227 fps=0.8 q=51.0 size=    1024KiB time=00:00:03.75 bitrate=2237.1kbits/s speed=0.0131x elapsed=0:04:46.26    \nframe=  227 fps=0.8 q=51.0 size=    1024KiB time=00:00:03.75 bitrate=2237.1kbits/s speed=0.0131x elapsed=0:04:46.79    \nx265 [warning]: poc:225, VBV underflow (-1637 bits)\nframe=  228 fps=0.8 q=51.0 size=    1024KiB time=00:00:03.76 bitrate=2227.2kbits/s speed=0.0131x elapsed=0:04:47.35    \nframe=  228 fps=0.8 q=51.0 size=    1024KiB time=00:00:03.76 bitrate=2227.2kbits/s speed=0.0131x elapsed=0:04:47.87    \nx265 [warning]: poc:227, VBV underflow (-2093 bits)\nx265 [warning]: poc:233, VBV underflow (-29837 bits)\nframe=  230 fps=0.8 q=51.0 size=    1024KiB time=00:00:03.80 bitrate=2207.6kbits/s speed=0.0132x elapsed=0:04:48.38    \nx265 [warning]: poc:231, VBV underflow (-21077 bits)\nframe=  231 fps=0.8 q=51.0 size=    1024KiB time=00:00:03.81 bitrate=2198.0kbits/s speed=0.0132x elapsed=0:04:48.90    \nframe=  231 fps=0.8 q=51.0 size=    1024KiB time=00:00:03.81 bitrate=2198.0kbits/s speed=0.0132x elapsed=0:04:49.42    \nframe=  231 fps=0.8 q=51.0 size=    1024KiB time=00:00:03.81 bitrate=2198.0kbits/s speed=0.0132x elapsed=0:04:49.98    \nx265 [warning]: poc:229, VBV underflow (-8237 bits)\nframe=  232 fps=0.8 q=51.0 size=    1024KiB time=00:00:03.83 bitrate=2188.4kbits/s speed=0.0132x elapsed=0:04:50.51    \nx265 [warning]: poc:230, VBV underflow (-9117 bits)\nframe=  233 fps=0.8 q=51.0 size=    1024KiB time=00:00:03.85 bitrate=2179.0kbits/s speed=0.0132x elapsed=0:04:51.05    \nframe=  233 fps=0.8 q=51.0 size=    1024KiB time=00:00:03.85 bitrate=2179.0kbits/s speed=0.0132x elapsed=0:04:51.66    \nx265 [warning]: poc:232, VBV underflow (-2693 bits)\nframe=  234 fps=0.8 q=51.0 size=    1024KiB time=00:00:03.86 bitrate=2169.6kbits/s speed=0.0132x elapsed=0:04:52.21    \nx265 [warning]: poc:237, VBV underflow (-26981 bits)\nframe=  235 fps=0.8 q=51.0 size=    1024KiB time=00:00:03.88 bitrate=2160.2kbits/s speed=0.0133x elapsed=0:04:52.75    \nframe=  235 fps=0.8 q=51.0 size=    1024KiB time=00:00:03.88 bitrate=2160.2kbits/s speed=0.0132x elapsed=0:04:53.30    \nx265 [warning]: poc:235, VBV underflow (-16525 bits)\nframe=  236 fps=0.8 q=51.0 size=    1024KiB time=00:00:03.90 bitrate=2151.0kbits/s speed=0.0133x elapsed=0:04:53.83    \nframe=  236 fps=0.8 q=51.0 size=    1024KiB time=00:00:03.90 bitrate=2151.0kbits/s speed=0.0132x elapsed=0:04:54.37    \nx265 [warning]: poc:234, VBV underflow (-2845 bits)\nframe=  237 fps=0.8 q=51.0 size=    1024KiB time=00:00:03.91 bitrate=2141.9kbits/s speed=0.0133x elapsed=0:04:54.89    \nx265 [warning]: poc:236, VBV underflow (-1661 bits)\nframe=  238 fps=0.8 q=51.0 size=    1024KiB time=00:00:03.93 bitrate=2132.8kbits/s speed=0.0133x elapsed=0:04:55.42    \nframe=  238 fps=0.8 q=51.0 size=    1024KiB time=00:00:03.93 bitrate=2132.8kbits/s speed=0.0133x elapsed=0:04:55.94    \nframe=  238 fps=0.8 q=51.0 size=    1024KiB time=00:00:03.93 bitrate=2132.8kbits/s speed=0.0133x elapsed=0:04:56.48    \nframe=  238 fps=0.8 q=51.0 size=    1024KiB time=00:00:03.93 bitrate=2132.8kbits/s speed=0.0132x elapsed=0:04:57.00    \nframe=  238 fps=0.8 q=51.0 size=    1024KiB time=00:00:03.93 bitrate=2132.8kbits/s speed=0.0132x elapsed=0:04:57.56    \nx265 [warning]: poc:241, VBV underflow (-27389 bits)\nx265 [warning]: poc:239, VBV underflow (-16005 bits)\nframe=  240 fps=0.8 q=51.0 size=    1024KiB time=00:00:03.96 bitrate=2114.9kbits/s speed=0.0133x elapsed=0:04:58.10    \nframe=  240 fps=0.8 q=51.0 size=    1024KiB time=00:00:03.96 bitrate=2114.9kbits/s speed=0.0133x elapsed=0:04:58.67    \nx265 [warning]: poc:238, VBV underflow (-1213 bits)\nframe=  241 fps=0.8 q=51.0 size=    1024KiB time=00:00:03.98 bitrate=2106.0kbits/s speed=0.0133x elapsed=0:04:59.19    \nframe=  241 fps=0.8 q=51.0 size=    1024KiB time=00:00:03.98 bitrate=2106.0kbits/s speed=0.0133x elapsed=0:04:59.78    \nframe=  241 fps=0.8 q=51.0 size=    1024KiB time=00:00:03.98 bitrate=2106.0kbits/s speed=0.0133x elapsed=0:05:00.36    \nframe=  241 fps=0.8 q=51.0 size=    1024KiB time=00:00:03.98 bitrate=2106.0kbits/s speed=0.0132x elapsed=0:05:00.90    \nframe=  241 fps=0.8 q=51.0 size=    1024KiB time=00:00:03.98 bitrate=2106.0kbits/s speed=0.0132x elapsed=0:05:01.49    \nframe=  241 fps=0.8 q=51.0 size=    1024KiB time=00:00:03.98 bitrate=2106.0kbits/s speed=0.0132x elapsed=0:05:02.05    \nframe=  241 fps=0.8 q=51.0 size=    1024KiB time=00:00:03.98 bitrate=2106.0kbits/s speed=0.0132x elapsed=0:05:02.64    \nx265 [warning]: poc:240, VBV underflow (-1245 bits)\nframe=  242 fps=0.8 q=51.0 size=    1024KiB time=00:00:04.00 bitrate=2097.2kbits/s speed=0.0132x elapsed=0:05:03.17    \nframe=  242 fps=0.8 q=51.0 size=    1024KiB time=00:00:04.00 bitrate=2097.2kbits/s speed=0.0132x elapsed=0:05:03.71    \nx265 [warning]: poc:245, VBV underflow (-25421 bits)\nframe=  243 fps=0.8 q=51.0 size=    1024KiB time=00:00:04.01 bitrate=2088.5kbits/s speed=0.0132x elapsed=0:05:04.23    \nframe=  243 fps=0.8 q=51.0 size=    1024KiB time=00:00:04.01 bitrate=2088.5kbits/s speed=0.0132x elapsed=0:05:04.78    \nframe=  243 fps=0.8 q=51.0 size=    1024KiB time=00:00:04.01 bitrate=2088.5kbits/s speed=0.0132x elapsed=0:05:05.33    \nframe=  243 fps=0.8 q=51.0 size=    1024KiB time=00:00:04.01 bitrate=2088.5kbits/s speed=0.0131x elapsed=0:05:05.87    \nframe=  243 fps=0.8 q=51.0 size=    1024KiB time=00:00:04.01 bitrate=2088.5kbits/s speed=0.0131x elapsed=0:05:06.41    \nframe=  243 fps=0.8 q=51.0 size=    1024KiB time=00:00:04.01 bitrate=2088.5kbits/s speed=0.0131x elapsed=0:05:06.95    \nx265 [warning]: poc:243, VBV underflow (-15357 bits)\nframe=  244 fps=0.8 q=51.0 size=    1024KiB time=00:00:04.03 bitrate=2079.9kbits/s speed=0.0131x elapsed=0:05:07.54    \nframe=  244 fps=0.8 q=51.0 size=    1024KiB time=00:00:04.03 bitrate=2079.9kbits/s speed=0.0131x elapsed=0:05:08.07    \nframe=  244 fps=0.8 q=51.0 size=    1024KiB time=00:00:04.03 bitrate=2079.9kbits/s speed=0.0131x elapsed=0:05:08.61    \nx265 [warning]: poc:242, VBV underflow (-1669 bits)\nframe=  245 fps=0.8 q=51.0 size=    1024KiB time=00:00:04.05 bitrate=2071.3kbits/s speed=0.0131x elapsed=0:05:09.13    \nframe=  245 fps=0.8 q=51.0 size=    1024KiB time=00:00:04.05 bitrate=2071.3kbits/s speed=0.0131x elapsed=0:05:09.67    \nx265 [warning]: poc:244, VBV underflow (-421 bits)\nframe=  246 fps=0.8 q=51.0 size=    1024KiB time=00:00:04.06 bitrate=2062.9kbits/s speed=0.0131x elapsed=0:05:10.21    \nx265 [warning]: poc:249, VBV underflow (-24741 bits)\nframe=  247 fps=0.8 q=51.0 size=    1024KiB time=00:00:04.08 bitrate=2054.4kbits/s speed=0.0131x elapsed=0:05:10.74    \nframe=  247 fps=0.8 q=51.0 size=    1024KiB time=00:00:04.08 bitrate=2054.4kbits/s speed=0.0131x elapsed=0:05:11.26    \nx265 [warning]: poc:247, VBV underflow (-14677 bits)\nframe=  248 fps=0.8 q=51.0 size=    1024KiB time=00:00:04.10 bitrate=2046.1kbits/s speed=0.0131x elapsed=0:05:11.78    \nx265 [warning]: poc:246, VBV underflow (-453 bits)\nframe=  249 fps=0.8 q=51.0 size=    1024KiB time=00:00:04.11 bitrate=2037.8kbits/s speed=0.0132x elapsed=0:05:12.30    \nframe=  249 fps=0.8 q=51.0 size=    1024KiB time=00:00:04.11 bitrate=2037.8kbits/s speed=0.0132x elapsed=0:05:12.83    \nx265 [warning]: poc:248, VBV underflow (-1389 bits)\nframe=  250 fps=0.8 q=51.0 size=    1024KiB time=00:00:04.13 bitrate=2029.6kbits/s speed=0.0132x elapsed=0:05:13.36    \nframe=  250 fps=0.8 q=51.0 size=    1024KiB time=00:00:04.13 bitrate=2029.6kbits/s speed=0.0132x elapsed=0:05:13.89    \nframe=  250 fps=0.8 q=51.0 size=    1024KiB time=00:00:04.13 bitrate=2029.6kbits/s speed=0.0131x elapsed=0:05:14.43    \nframe=  250 fps=0.8 q=51.0 size=    1024KiB time=00:00:04.13 bitrate=2029.6kbits/s speed=0.0131x elapsed=0:05:14.96    \nx265 [warning]: poc:250, VBV underflow (-25605 bits)\nframe=  251 fps=0.8 q=51.0 size=    1024KiB time=00:00:04.15 bitrate=2021.4kbits/s speed=0.0132x elapsed=0:05:15.48    \nx265 [warning]: poc:254, VBV underflow (-26693 bits)\nframe=  252 fps=0.8 q=51.0 size=    1024KiB time=00:00:04.16 bitrate=2013.4kbits/s speed=0.0132x elapsed=0:05:16.01    \nx265 [warning]: poc:252, VBV underflow (-13765 bits)\nframe=  253 fps=0.8 q=51.0 size=    1024KiB time=00:00:04.18 bitrate=2005.3kbits/s speed=0.0132x elapsed=0:05:16.55    \nframe=  254 fps=0.8 q=51.0 size=    1024KiB time=00:00:04.20 bitrate=1997.4kbits/s speed=0.0132x elapsed=0:05:17.08    \nframe=  255 fps=0.8 q=51.0 size=    1024KiB time=00:00:04.21 bitrate=1989.5kbits/s speed=0.0133x elapsed=0:05:17.62    \nframe=  255 fps=0.8 q=51.0 size=    1024KiB time=00:00:04.21 bitrate=1989.5kbits/s speed=0.0133x elapsed=0:05:18.17    \nframe=  255 fps=0.8 q=51.0 size=    1024KiB time=00:00:04.21 bitrate=1989.5kbits/s speed=0.0132x elapsed=0:05:18.70    \nx265 [warning]: poc:259, VBV underflow (-24536 bits)\nframe=  256 fps=0.8 q=51.0 size=    1024KiB time=00:00:04.23 bitrate=1981.6kbits/s speed=0.0133x elapsed=0:05:19.25    \nx265 [warning]: poc:257, VBV underflow (-17453 bits)\nframe=  257 fps=0.8 q=51.0 size=    1024KiB time=00:00:04.25 bitrate=1973.9kbits/s speed=0.0133x elapsed=0:05:19.79    \nframe=  257 fps=0.8 q=51.0 size=    1024KiB time=00:00:04.25 bitrate=1973.9kbits/s speed=0.0133x elapsed=0:05:20.34    \nframe=  257 fps=0.8 q=51.0 size=    1024KiB time=00:00:04.25 bitrate=1973.9kbits/s speed=0.0132x elapsed=0:05:20.87    \nx265 [warning]: poc:255, VBV underflow (-6269 bits)\nframe=  258 fps=0.8 q=51.0 size=    1024KiB time=00:00:04.26 bitrate=1966.2kbits/s speed=0.0133x elapsed=0:05:21.40    \nframe=  258 fps=0.8 q=51.0 size=    1024KiB time=00:00:04.26 bitrate=1966.2kbits/s speed=0.0133x elapsed=0:05:21.91    \nx265 [warning]: poc:256, VBV underflow (-6069 bits)\nframe=  259 fps=0.8 q=51.0 size=    1024KiB time=00:00:04.28 bitrate=1958.5kbits/s speed=0.0133x elapsed=0:05:22.43    \nframe=  259 fps=0.8 q=51.0 size=    1024KiB time=00:00:04.28 bitrate=1958.5kbits/s speed=0.0133x elapsed=0:05:22.96    \nframe=  259 fps=0.8 q=51.0 size=    1024KiB time=00:00:04.28 bitrate=1958.5kbits/s speed=0.0132x elapsed=0:05:23.48    \nx265 [warning]: poc:258, VBV underflow (-557 bits)\nframe=  260 fps=0.8 q=51.0 size=    1024KiB time=00:00:04.30 bitrate=1950.9kbits/s speed=0.0133x elapsed=0:05:24.03    \nframe=  260 fps=0.8 q=51.0 size=    1024KiB time=00:00:04.30 bitrate=1950.9kbits/s speed=0.0132x elapsed=0:05:24.55    \nx265 [warning]: poc:263, VBV underflow (-20277 bits)\nframe=  261 fps=0.8 q=51.0 size=    1024KiB time=00:00:04.31 bitrate=1943.4kbits/s speed=0.0133x elapsed=0:05:25.06    \nframe=  261 fps=0.8 q=51.0 size=    1024KiB time=00:00:04.31 bitrate=1943.4kbits/s speed=0.0133x elapsed=0:05:25.59    \nx265 [warning]: poc:261, VBV underflow (-11845 bits)\nframe=  262 fps=0.8 q=51.0 size=    1024KiB time=00:00:04.33 bitrate=1935.9kbits/s speed=0.0133x elapsed=0:05:26.11    \nframe=  262 fps=0.8 q=51.0 size=    1024KiB time=00:00:04.33 bitrate=1935.9kbits/s speed=0.0133x elapsed=0:05:26.63    \nframe=  263 fps=0.8 q=51.0 size=    1024KiB time=00:00:04.35 bitrate=1928.5kbits/s speed=0.0133x elapsed=0:05:27.14    \nframe=  264 fps=0.8 q=51.0 size=    1024KiB time=00:00:04.36 bitrate=1921.1kbits/s speed=0.0133x elapsed=0:05:27.66    \nframe=  264 fps=0.8 q=51.0 size=    1024KiB time=00:00:04.36 bitrate=1921.1kbits/s speed=0.0133x elapsed=0:05:28.18    \nx265 [warning]: poc:267, VBV underflow (-21416 bits)\nframe=  265 fps=0.8 q=51.0 size=    1024KiB time=00:00:04.38 bitrate=1913.8kbits/s speed=0.0133x elapsed=0:05:28.69    \nframe=  265 fps=0.8 q=51.0 size=    1024KiB time=00:00:04.38 bitrate=1913.8kbits/s speed=0.0133x elapsed=0:05:29.20    \nframe=  265 fps=0.8 q=51.0 size=    1024KiB time=00:00:04.38 bitrate=1913.8kbits/s speed=0.0133x elapsed=0:05:29.72    \nx265 [warning]: poc:265, VBV underflow (-11013 bits)\nframe=  266 fps=0.8 q=51.0 size=    1024KiB time=00:00:04.40 bitrate=1906.6kbits/s speed=0.0133x elapsed=0:05:30.25    \nframe=  266 fps=0.8 q=51.0 size=    1024KiB time=00:00:04.40 bitrate=1906.6kbits/s speed=0.0133x elapsed=0:05:30.77    \nframe=  266 fps=0.8 q=51.0 size=    1024KiB time=00:00:04.40 bitrate=1906.6kbits/s speed=0.0133x elapsed=0:05:31.31    \nframe=  266 fps=0.8 q=51.0 size=    1024KiB time=00:00:04.40 bitrate=1906.6kbits/s speed=0.0133x elapsed=0:05:31.82    \nframe=  266 fps=0.8 q=51.0 size=    1024KiB time=00:00:04.40 bitrate=1906.6kbits/s speed=0.0132x elapsed=0:05:32.38    \nframe=  267 fps=0.8 q=51.0 size=    1024KiB time=00:00:04.41 bitrate=1899.4kbits/s speed=0.0133x elapsed=0:05:32.91    \nframe=  268 fps=0.8 q=51.0 size=    1024KiB time=00:00:04.43 bitrate=1892.2kbits/s speed=0.0133x elapsed=0:05:33.42    \nx265 [warning]: poc:271, VBV underflow (-19416 bits)\nframe=  269 fps=0.8 q=51.0 size=    1024KiB time=00:00:04.45 bitrate=1885.2kbits/s speed=0.0133x elapsed=0:05:33.96    \nframe=  269 fps=0.8 q=51.0 size=    1024KiB time=00:00:04.45 bitrate=1885.2kbits/s speed=0.0133x elapsed=0:05:34.51    \nx265 [warning]: poc:269, VBV underflow (-11781 bits)\nframe=  270 fps=0.8 q=51.0 size=    1024KiB time=00:00:04.46 bitrate=1878.1kbits/s speed=0.0133x elapsed=0:05:35.03    \nframe=  270 fps=0.8 q=51.0 size=    1024KiB time=00:00:04.46 bitrate=1878.1kbits/s speed=0.0133x elapsed=0:05:35.55    \nframe=  270 fps=0.8 q=51.0 size=    1024KiB time=00:00:04.46 bitrate=1878.1kbits/s speed=0.0133x elapsed=0:05:36.07    \nframe=  270 fps=0.8 q=51.0 size=    1024KiB time=00:00:04.46 bitrate=1878.1kbits/s speed=0.0133x elapsed=0:05:36.58    \nframe=  271 fps=0.8 q=51.0 size=    1024KiB time=00:00:04.48 bitrate=1871.1kbits/s speed=0.0133x elapsed=0:05:37.12    \nframe=  272 fps=0.8 q=51.0 size=    1024KiB time=00:00:04.50 bitrate=1864.2kbits/s speed=0.0133x elapsed=0:05:37.67    \nx265 [warning]: poc:275, VBV underflow (-17696 bits)\nframe=  273 fps=0.8 q=51.0 size=    1024KiB time=00:00:04.50 bitrate=1864.2kbits/s speed=0.0133x elapsed=0:05:38.19    \nframe=  273 fps=0.8 q=51.0 size=    1024KiB time=00:00:04.51 bitrate=1857.3kbits/s speed=0.0133x elapsed=0:05:38.71    \nx265 [warning]: poc:273, VBV underflow (-12509 bits)\nframe=  274 fps=0.8 q=51.0 size=    1024KiB time=00:00:04.53 bitrate=1850.5kbits/s speed=0.0134x elapsed=0:05:39.23    \nframe=  275 fps=0.8 q=51.0 size=    1024KiB time=00:00:04.55 bitrate=1843.7kbits/s speed=0.0134x elapsed=0:05:39.77    \nframe=  275 fps=0.8 q=51.0 size=    1024KiB time=00:00:04.55 bitrate=1843.7kbits/s speed=0.0134x elapsed=0:05:40.33    \nframe=  276 fps=0.8 q=51.0 size=    1024KiB time=00:00:04.56 bitrate=1837.0kbits/s speed=0.0134x elapsed=0:05:40.89    \nframe=  276 fps=0.8 q=51.0 size=    1024KiB time=00:00:04.56 bitrate=1837.0kbits/s speed=0.0134x elapsed=0:05:41.43    \nframe=  276 fps=0.8 q=51.0 size=    1024KiB time=00:00:04.56 bitrate=1837.0kbits/s speed=0.0134x elapsed=0:05:41.95    \nframe=  276 fps=0.8 q=51.0 size=    1024KiB time=00:00:04.56 bitrate=1837.0kbits/s speed=0.0133x elapsed=0:05:42.47    \nx265 [warning]: poc:279, VBV underflow (-18680 bits)\nframe=  277 fps=0.8 q=51.0 size=    1024KiB time=00:00:04.58 bitrate=1830.3kbits/s speed=0.0134x elapsed=0:05:43.01    \nframe=  277 fps=0.8 q=51.0 size=    1024KiB time=00:00:04.58 bitrate=1830.3kbits/s speed=0.0133x elapsed=0:05:43.55    \nframe=  277 fps=0.8 q=51.0 size=    1024KiB time=00:00:04.58 bitrate=1830.3kbits/s speed=0.0133x elapsed=0:05:44.07    \nx265 [warning]: poc:277, VBV underflow (-11829 bits)\nframe=  278 fps=0.8 q=51.0 size=    1024KiB time=00:00:04.60 bitrate=1823.7kbits/s speed=0.0133x elapsed=0:05:44.62    \nframe=  278 fps=0.8 q=51.0 size=    1024KiB time=00:00:04.60 bitrate=1823.7kbits/s speed=0.0133x elapsed=0:05:45.15    \nframe=  278 fps=0.8 q=51.0 size=    1024KiB time=00:00:04.60 bitrate=1823.7kbits/s speed=0.0133x elapsed=0:05:45.69    \nframe=  279 fps=0.8 q=51.0 size=    1024KiB time=00:00:04.61 bitrate=1817.1kbits/s speed=0.0133x elapsed=0:05:46.22    \nframe=  279 fps=0.8 q=51.0 size=    1024KiB time=00:00:04.61 bitrate=1817.1kbits/s speed=0.0133x elapsed=0:05:46.74    \nframe=  280 fps=0.8 q=51.0 size=    1024KiB time=00:00:04.63 bitrate=1810.6kbits/s speed=0.0133x elapsed=0:05:47.26    \nx265 [warning]: poc:283, VBV underflow (-15648 bits)\nframe=  281 fps=0.8 q=51.0 size=    1024KiB time=00:00:04.65 bitrate=1804.1kbits/s speed=0.0134x elapsed=0:05:47.78    \nframe=  281 fps=0.8 q=51.0 size=    1024KiB time=00:00:04.65 bitrate=1804.1kbits/s speed=0.0134x elapsed=0:05:48.31    \nframe=  281 fps=0.8 q=51.0 size=    1024KiB time=00:00:04.65 bitrate=1804.1kbits/s speed=0.0133x elapsed=0:05:48.83    \nx265 [warning]: poc:281, VBV underflow (-9637 bits)\nframe=  282 fps=0.8 q=51.0 size=    1024KiB time=00:00:04.66 bitrate=1797.6kbits/s speed=0.0134x elapsed=0:05:49.36    \nframe=  282 fps=0.8 q=51.0 size=    1024KiB time=00:00:04.66 bitrate=1797.6kbits/s speed=0.0133x elapsed=0:05:49.87    \nframe=  284 fps=0.8 q=51.0 size=    1024KiB time=00:00:04.70 bitrate=1784.9kbits/s speed=0.0134x elapsed=0:05:50.42    \nframe=  284 fps=0.8 q=51.0 size=    1024KiB time=00:00:04.70 bitrate=1784.9kbits/s speed=0.0134x elapsed=0:05:50.95    \nx265 [warning]: poc:287, VBV underflow (-17464 bits)\nframe=  285 fps=0.8 q=51.0 size=    1024KiB time=00:00:04.71 bitrate=1778.6kbits/s speed=0.0134x elapsed=0:05:51.48    \nx265 [warning]: poc:285, VBV underflow (-10709 bits)\nframe=  286 fps=0.8 q=51.0 size=    1024KiB time=00:00:04.73 bitrate=1772.3kbits/s speed=0.0134x elapsed=0:05:52.02    \nframe=  287 fps=0.8 q=51.0 size=    1024KiB time=00:00:04.75 bitrate=1766.1kbits/s speed=0.0135x elapsed=0:05:52.54    \nframe=  288 fps=0.8 q=51.0 size=    1024KiB time=00:00:04.76 bitrate=1759.9kbits/s speed=0.0135x elapsed=0:05:53.08    \nframe=  288 fps=0.8 q=51.0 size=    1024KiB time=00:00:04.76 bitrate=1759.9kbits/s speed=0.0135x elapsed=0:05:53.59    \nframe=  288 fps=0.8 q=51.0 size=    1024KiB time=00:00:04.76 bitrate=1759.9kbits/s speed=0.0135x elapsed=0:05:54.14    \nx265 [warning]: poc:291, VBV underflow (-15352 bits)\nframe=  289 fps=0.8 q=51.0 size=    1024KiB time=00:00:04.78 bitrate=1753.8kbits/s speed=0.0135x elapsed=0:05:54.68    \nx265 [warning]: poc:289, VBV underflow (-11173 bits)\nframe=  290 fps=0.8 q=51.0 size=    1024KiB time=00:00:04.80 bitrate=1747.7kbits/s speed=0.0135x elapsed=0:05:55.19    \nframe=  291 fps=0.8 q=51.0 size=    1024KiB time=00:00:04.81 bitrate=1741.7kbits/s speed=0.0135x elapsed=0:05:55.73    \nframe=  291 fps=0.8 q=51.0 size=    1024KiB time=00:00:04.81 bitrate=1741.7kbits/s speed=0.0135x elapsed=0:05:56.35    \nframe=  291 fps=0.8 q=51.0 size=    1024KiB time=00:00:04.81 bitrate=1741.7kbits/s speed=0.0135x elapsed=0:05:56.88    \nframe=  292 fps=0.8 q=51.0 size=    1024KiB time=00:00:04.83 bitrate=1735.6kbits/s speed=0.0135x elapsed=0:05:57.47    \nframe=  292 fps=0.8 q=51.0 size=    1024KiB time=00:00:04.83 bitrate=1735.6kbits/s speed=0.0135x elapsed=0:05:58.02    \nx265 [warning]: poc:295, VBV underflow (-13760 bits)\nframe=  293 fps=0.8 q=51.0 size=    1024KiB time=00:00:04.85 bitrate=1729.7kbits/s speed=0.0135x elapsed=0:05:58.57    \nx265 [warning]: poc:293, VBV underflow (-10285 bits)\nframe=  294 fps=0.8 q=51.0 size=    1024KiB time=00:00:04.86 bitrate=1723.8kbits/s speed=0.0136x elapsed=0:05:59.09    \nframe=  295 fps=0.8 q=51.0 size=    1024KiB time=00:00:04.88 bitrate=1717.9kbits/s speed=0.0136x elapsed=0:05:59.62    \nframe=  295 fps=0.8 q=51.0 size=    1024KiB time=00:00:04.88 bitrate=1717.9kbits/s speed=0.0136x elapsed=0:06:00.14    \nframe=  296 fps=0.8 q=51.0 size=    1024KiB time=00:00:04.90 bitrate=1712.0kbits/s speed=0.0136x elapsed=0:06:00.66    \nframe=  296 fps=0.8 q=51.0 size=    1024KiB time=00:00:04.90 bitrate=1712.0kbits/s speed=0.0136x elapsed=0:06:01.20    \nx265 [warning]: poc:299, VBV underflow (-13784 bits)\nframe=  297 fps=0.8 q=51.0 size=    1024KiB time=00:00:04.91 bitrate=1706.2kbits/s speed=0.0136x elapsed=0:06:01.70    \nx265 [warning]: poc:297, VBV underflow (-7781 bits)\nframe=  298 fps=0.8 q=51.0 size=    1024KiB time=00:00:04.93 bitrate=1700.5kbits/s speed=0.0136x elapsed=0:06:02.23    \nframe=  299 fps=0.8 q=51.0 size=    1024KiB time=00:00:04.95 bitrate=1694.7kbits/s speed=0.0136x elapsed=0:06:02.75    \n[mp4 @ 0000023f30fa7ac0] Starting second pass: moving the moov atom to the beginning of the file\n[out#0/mp4 @ 0000023f30f1ab40] video:1267KiB audio:0KiB subtitle:0KiB other streams:0KiB global headers:2KiB muxing overhead: 0.553279%\nframe=  300 fps=0.8 q=51.0 Lsize=    1274KiB time=00:00:04.96 bitrate=2101.3kbits/s speed=0.0137x elapsed=0:06:02.76    \nx265 [info]: frame I:      2, Avg QP:51.00  kb/s: 2448.96 \nx265 [info]: frame P:     71, Avg QP:51.00  kb/s: 2972.05 \nx265 [info]: frame B:    227, Avg QP:51.00  kb/s: 1789.61 \nx265 [info]: Weighted P-Frames: Y:81.7% UV:71.8%\n\nencoded 300 frames in 362.26s (0.83 fps), 2073.85 kb/s, Avg QP:51.00\n",
  "seconds": 363.7496063709259,
  "probe_out": {}
}